<?xml version="1.0" standalone="no"?>
<!DOCTYPE svg PUBLIC "-//W3C//DTD SVG 20010904//EN"
 "http://www.w3.org/TR/2001/REC-SVG-20010904/DTD/svg10.dtd">
<svg version="1.0" xmlns="http://www.w3.org/2000/svg"
 width="1536.000000pt" height="1152.000000pt" viewBox="0 0 1536.000000 1152.000000"
 preserveAspectRatio="xMidYMid meet">

<g transform="translate(0.000000,1152.000000) scale(0.100000,-0.100000)"
fill="#000000" stroke="none">
<path d="M0 9315 l0 -2204 36 -7 c19 -4 38 -13 41 -20 7 -19 23 -18 23 1 0 19
7 19 28 -1 15 -15 16 -15 22 2 5 12 9 14 14 6 4 -7 23 -12 42 -12 19 0 34 -4
34 -10 0 -5 9 -10 20 -10 11 0 20 4 20 9 0 4 45 9 100 9 69 1 100 -3 100 -11
0 -8 3 -8 11 0 6 6 18 9 25 6 8 -3 21 0 29 7 14 11 33 10 82 -6 15 -5 15 -4 3
5 -13 9 -13 11 2 11 9 0 20 -4 23 -10 9 -14 42 -12 48 3 4 9 8 9 14 0 6 -8 17
-8 46 2 22 7 40 9 43 3 3 -5 26 -6 51 -4 29 4 54 1 73 -9 16 -8 47 -15 70 -15
25 0 40 -5 40 -12 0 -9 4 -8 11 2 8 11 12 12 15 3 4 -8 16 -10 34 -7 17 4 41
0 59 -9 22 -11 31 -12 31 -4 0 9 2 9 8 1 7 -11 77 -39 99 -39 7 0 21 -10 33
-23 21 -23 36 -30 25 -12 -3 6 1 7 9 4 9 -3 16 -15 16 -25 0 -17 3 -18 21 -8
19 10 20 8 14 -10 -5 -16 -1 -23 16 -30 19 -6 14 -9 -29 -15 -29 -4 -60 -10
-69 -13 -10 -4 -14 -2 -9 5 7 11 -84 9 -103 -2 -5 -4 -12 -3 -15 2 -3 5 -39 4
-82 -1 -52 -6 -80 -5 -87 2 -14 14 -30 14 -22 1 9 -14 -9 -12 -23 2 -10 10
-15 10 -21 -1 -5 -7 -10 -9 -12 -4 -5 13 -79 24 -79 12 0 -6 -9 -5 -22 2 -11
6 -39 11 -62 11 -22 -1 -46 4 -53 10 -8 6 -13 7 -13 1 0 -6 -33 -2 -77 9 -87
21 -160 37 -183 41 -8 1 -32 9 -53 16 -21 7 -52 11 -68 9 -25 -4 -29 -1 -30
21 -1 17 -3 20 -6 9 -6 -23 -32 -23 -40 -2 -6 15 -7 15 -19 -1 -12 -17 -15
-17 -31 -3 -10 9 -33 15 -51 13 -36 -2 -53 12 -31 26 11 7 10 9 -3 9 -10 0
-18 -7 -18 -16 0 -13 -7 -15 -34 -10 -19 4 -46 4 -60 0 l-26 -6 0 -509 0 -509
150 6 c113 5 160 4 190 -6 22 -7 40 -17 40 -21 0 -4 84 -9 188 -9 103 -1 203
-3 222 -5 72 -8 274 -55 296 -70 13 -8 28 -15 34 -15 18 0 198 -90 211 -106 6
-8 16 -14 21 -14 11 0 124 -76 147 -99 9 -9 46 -37 81 -61 36 -25 67 -47 70
-50 6 -6 96 -50 102 -50 3 0 23 -8 44 -17 22 -9 48 -18 59 -20 10 -2 22 -7 25
-12 3 -4 12 -8 20 -9 29 -1 216 -53 305 -84 142 -50 225 -43 286 24 9 10 21
18 26 18 6 0 17 7 24 16 7 9 22 20 34 25 11 5 27 13 35 19 81 53 191 71 436
72 l189 1 175 -43 c96 -23 182 -42 190 -42 8 0 24 -3 35 -8 22 -9 127 -35 225
-56 36 -7 128 -16 205 -20 l140 -6 23 25 c18 19 26 44 33 104 11 88 149 514
198 612 52 102 91 253 98 373 3 59 10 105 14 102 5 -3 9 6 9 19 0 13 10 36 23
49 95 109 189 264 252 421 21 50 45 82 133 172 104 106 152 164 152 183 0 18
74 108 165 202 110 113 136 141 193 209 24 28 85 79 135 113 50 34 113 85 141
115 71 78 259 221 346 264 41 21 111 63 154 93 44 31 89 56 100 56 24 0 91 33
121 60 11 10 35 21 54 25 48 10 103 45 97 61 -3 9 2 14 14 14 13 0 18 5 14 15
-11 26 38 13 69 -19 27 -30 27 -30 62 -13 47 23 59 22 115 -9 70 -38 85 -32
153 63 58 82 59 83 63 165 9 163 11 409 2 414 -4 3 -6 10 -2 15 3 6 8 31 9 57
9 121 35 262 48 262 5 0 7 19 5 45 -4 30 -2 45 6 45 6 0 5 4 -3 9 -10 7 -11
10 -1 16 10 6 9 11 -4 20 -14 11 -14 14 -2 24 12 10 12 17 -1 51 -9 22 -22 40
-29 40 -8 0 -16 16 -20 40 -4 22 -10 37 -15 34 -12 -7 -11 3 1 27 6 10 17 19
24 19 7 0 21 9 32 21 12 14 27 19 43 16 30 -6 71 11 71 30 0 8 5 11 12 7 6 -4
17 1 24 10 6 9 23 19 36 21 55 8 68 17 78 56 6 22 14 39 18 39 4 0 8 56 10
124 2 112 0 126 -19 150 -12 15 -18 33 -15 41 3 9 -3 20 -14 27 -11 7 -20 19
-20 26 0 9 -7 11 -20 7 -15 -5 -20 -2 -20 12 -1 17 -1 17 -11 0 -10 -17 -11
-17 -28 2 -9 11 -30 22 -47 25 -24 5 -26 5 -9 -4 16 -8 11 -9 -23 -5 -31 4
-41 2 -40 -7 2 -7 -3 -12 -9 -10 -7 1 -13 -3 -13 -10 0 -6 -9 -21 -19 -32 -78
-84 -123 -265 -134 -541 -2 -46 -9 -79 -21 -97 -9 -14 -17 -37 -18 -50 0 -23
-11 -51 -61 -161 -15 -31 -27 -67 -27 -78 0 -11 -8 -34 -17 -52 -9 -18 -22
-59 -29 -92 -18 -86 -47 -179 -56 -183 -4 -2 -8 -9 -8 -17 0 -7 -7 -18 -15
-25 -8 -7 -15 -23 -15 -36 0 -22 -9 -28 -36 -25 -7 1 -14 -5 -18 -14 -3 -8
-15 -15 -26 -15 -12 0 -18 5 -15 10 3 6 -1 10 -9 10 -9 0 -17 6 -17 13 -1 6
-3 19 -4 27 -1 8 -3 28 -4 43 0 17 -5 26 -12 22 -6 -4 -8 -13 -5 -21 3 -8 1
-14 -4 -14 -6 0 -10 17 -11 38 0 20 -3 66 -5 102 -3 36 0 103 6 150 7 47 14
109 16 139 2 29 7 57 10 62 3 5 14 62 23 127 14 89 17 155 14 277 -4 152 10
331 37 484 6 30 10 73 10 95 0 23 10 84 21 138 17 74 27 99 43 107 12 7 14 10
4 7 -10 -3 -20 -1 -23 3 -2 5 9 11 27 15 17 3 48 24 70 46 22 22 48 40 59 40
13 0 19 7 18 23 -1 16 -2 18 -6 5 -7 -27 -23 -21 -23 8 0 36 -17 64 -35 58
-11 -4 -15 1 -15 16 0 15 5 20 15 17 7 -3 24 2 36 12 21 17 21 18 5 50 -20 37
-13 55 9 25 11 -15 14 -16 15 -4 0 22 -20 40 -43 40 -13 0 -17 -5 -13 -16 3
-8 2 -12 -4 -9 -6 3 -10 -3 -10 -14 0 -12 -9 -26 -20 -33 -11 -7 -20 -19 -20
-26 0 -16 -22 -55 -36 -64 -7 -4 -15 -23 -18 -43 -4 -19 -14 -39 -24 -45 -14
-8 -15 -11 -3 -19 11 -7 11 -10 -1 -17 -8 -5 -22 -20 -31 -34 -9 -13 -17 -19
-17 -13 0 6 -9 13 -20 16 -11 3 -20 2 -20 -2 0 -4 -9 -17 -21 -29 -11 -12 -17
-27 -14 -32 4 -6 -1 -13 -9 -16 -9 -3 -16 -10 -16 -15 0 -4 7 -5 17 -2 11 4
14 3 9 -6 -4 -6 -16 -9 -27 -6 -13 5 -19 2 -19 -10 0 -27 -31 -85 -45 -85 -7
0 -24 16 -36 37 -20 32 -23 34 -31 17 -6 -16 -7 -15 -6 6 2 36 -13 100 -23
100 -5 0 -9 -7 -9 -15 0 -8 -4 -15 -10 -15 -5 0 -10 7 -10 16 0 14 -2 15 -17
3 -9 -8 -29 -14 -45 -14 -21 0 -28 5 -28 20 0 11 -4 27 -10 35 -6 9 -5 17 2
21 11 7 -14 53 -42 77 -13 11 -12 12 7 7 18 -5 22 -3 17 8 -3 9 0 17 8 20 7 2
3 2 -9 0 -18 -2 -21 0 -16 14 5 12 2 15 -9 10 -11 -4 -18 2 -22 19 -4 13 -12
24 -19 24 -6 0 2 9 19 19 33 20 40 49 15 68 -17 12 -31 8 -31 -9 0 -5 7 -8 15
-4 9 3 15 0 15 -9 0 -21 -16 -19 -40 5 -11 11 -23 20 -27 20 -4 0 -2 -5 5 -12
16 -16 15 -38 0 -38 -7 0 -20 -5 -28 -10 -13 -9 -13 -11 0 -21 11 -8 12 -12 2
-16 -6 -2 -10 -10 -6 -16 3 -7 -2 -3 -10 8 -16 19 -16 19 -32 -3 -16 -23 -16
-23 -32 -4 -19 21 -50 16 -86 -16 -18 -16 -19 -16 -13 1 10 26 -10 21 -29 -8
-9 -14 -23 -25 -30 -25 -8 0 -14 -4 -14 -9 0 -12 -52 -4 -60 10 -5 6 -17 9
-29 6 -22 -6 -38 7 -21 18 15 9 -15 36 -32 30 -9 -4 -19 5 -27 22 -12 25 -14
26 -25 11 -12 -16 -14 -15 -30 3 -12 15 -24 19 -42 15 -18 -5 -24 -2 -24 10 0
12 -3 14 -13 6 -10 -9 -17 -6 -27 8 -8 11 -25 20 -37 20 -13 0 -23 6 -23 13
-1 17 -27 -43 -60 -135 -15 -43 -30 -75 -35 -70 -5 4 -5 1 -1 -6 4 -7 3 -19
-3 -26 -9 -11 -14 -82 -12 -164 1 -29 -43 -88 -79 -107 -26 -13 -124 -19 -185
-11 -41 6 -405 141 -415 154 -3 4 -9 8 -15 9 -9 2 -123 50 -225 95 -88 39
-137 79 -166 137 -24 50 -26 61 -20 135 4 45 10 123 13 174 l5 92 -208 -2
-208 -3 -8 -33 c-5 -18 -22 -55 -38 -81 -53 -85 -128 -88 -269 -9 -29 16 -75
52 -102 79 l-48 49 -1726 0 -1725 0 0 -2205z m6900 1886 c0 -6 -4 -13 -10 -16
-5 -3 -10 1 -10 9 0 9 5 16 10 16 6 0 10 -4 10 -9z m-660 -17 c0 -8 -5 -12
-10 -9 -6 4 -8 11 -5 16 9 14 15 11 15 -7z m171 -308 c5 3 9 -2 9 -11 0 -12
-5 -15 -16 -11 -9 3 -23 6 -32 6 -13 0 -12 3 4 14 10 8 21 10 22 5 2 -5 8 -7
13 -3z m35 -33 c-11 -11 -19 6 -11 24 8 17 8 17 12 0 3 -10 2 -21 -1 -24z
m-46 -13 c0 -5 -5 -10 -11 -10 -5 0 -7 5 -4 10 3 6 8 10 11 10 2 0 4 -4 4 -10z
m25 -20 c3 -5 1 -10 -4 -10 -6 0 -11 5 -11 10 0 6 2 10 4 10 3 0 8 -4 11 -10z
m-58 -16 c-3 -3 -12 -4 -19 -1 -8 3 -5 6 6 6 11 1 17 -2 13 -5z m-4117 -3878
c145 -9 194 -16 203 -28 7 -10 10 -10 14 -1 3 10 10 10 24 2 11 -5 24 -7 30
-3 6 3 16 -1 22 -9 7 -8 34 -17 61 -21 28 -3 53 -11 57 -18 4 -6 14 -8 23 -5
10 4 16 1 16 -8 0 -8 3 -16 8 -16 15 -3 58 -7 95 -10 28 -2 37 -7 37 -20 0
-10 -4 -21 -10 -24 -5 -3 -10 -2 -10 4 0 8 -44 9 -60 1 -3 -2 -21 -3 -40 -4
-21 -1 -34 -6 -33 -13 4 -18 -38 -28 -48 -12 -5 8 -9 10 -9 5 0 -6 -5 -5 -12
2 -16 16 -28 15 -28 -3 0 -8 -4 -15 -9 -15 -5 0 -11 7 -15 15 -6 18 -43 20
-48 3 -3 -7 -9 -8 -18 -3 -15 9 -31 11 -122 15 -32 2 -58 7 -58 12 0 5 -4 7
-9 3 -5 -3 -12 -1 -15 4 -3 5 -23 7 -45 4 -22 -3 -48 0 -62 7 -17 10 -24 10
-27 1 -5 -16 -29 -14 -36 4 -3 9 -18 14 -38 13 -50 -1 -119 13 -112 23 3 5 -8
9 -25 9 -16 0 -32 -6 -35 -12 -4 -7 -4 -3 -2 8 3 18 -2 23 -35 28 -42 7 -57
22 -40 39 8 8 11 6 11 -6 0 -10 8 -17 18 -17 11 0 13 3 5 8 -8 5 -9 13 -3 22
9 13 10 13 10 0 0 -12 2 -13 9 -1 5 7 14 10 20 7 6 -4 11 -2 11 4 0 8 15 11
45 8 25 -2 45 0 45 3 0 6 88 4 240 -5z m-730 -21 c0 -8 -2 -15 -4 -15 -2 0 -6
7 -10 15 -3 8 -1 15 4 15 6 0 10 -7 10 -15z m-30 1 c0 -3 -4 -8 -10 -11 -5 -3
-10 -1 -10 4 0 6 5 11 10 11 6 0 10 -2 10 -4z m310 -36 c0 -5 -4 -10 -10 -10
-5 0 -10 5 -10 10 0 6 5 10 10 10 6 0 10 -4 10 -10z m36 -37 c-10 -10 -19 5
-10 18 6 11 8 11 12 0 2 -7 1 -15 -2 -18z m174 -27 c0 -3 -4 -8 -10 -11 -5 -3
-10 -1 -10 4 0 6 5 11 10 11 6 0 10 -2 10 -4z m863 -10 c6 -16 -2 -28 -14 -20
-12 7 -11 34 0 34 5 0 11 -6 14 -14z m229 -26 c4 0 8 9 8 19 0 14 5 18 20 14
11 -3 20 -9 20 -14 0 -5 5 -9 10 -9 6 0 10 7 10 15 0 8 7 15 15 15 8 0 15 -7
15 -15 0 -18 21 -20 37 -4 7 7 17 8 25 3 7 -5 29 -9 48 -10 41 -2 60 -7 79
-18 8 -5 16 -4 20 2 4 6 32 8 74 5 51 -4 65 -9 57 -18 -12 -15 -3 -25 16 -18
8 3 14 -1 14 -11 0 -13 11 -16 55 -16 30 0 55 -4 55 -10 0 -5 -20 -10 -45 -10
-46 0 -54 -7 -33 -28 7 -7 8 -12 4 -12 -5 0 -17 10 -27 22 -11 11 -22 18 -26
14 -4 -4 -1 -11 7 -16 26 -16 2 -22 -35 -10 -21 7 -55 10 -76 7 -22 -3 -42 -1
-45 4 -3 5 -10 6 -16 3 -6 -4 -14 0 -19 7 -7 11 -9 11 -9 -3 0 -15 -3 -15 -29
-2 -17 8 -63 16 -103 18 -76 4 -108 12 -108 27 0 5 -5 9 -11 9 -5 0 -7 -4 -4
-10 4 -6 -10 -10 -35 -10 -33 0 -41 3 -36 15 7 19 -3 19 -24 0 -16 -14 -20
-14 -46 8 -16 13 -40 28 -53 32 -16 5 -20 10 -12 18 7 7 21 7 43 1 49 -15 128
-6 129 15 0 12 3 10 11 -6 6 -13 15 -23 20 -23z m-262 -30 c0 -5 -4 -10 -10
-10 -5 0 -10 5 -10 10 0 6 5 10 10 10 6 0 10 -4 10 -10z m50 0 c9 -6 10 -10 3
-10 -6 0 -19 -3 -27 -6 -12 -5 -15 -2 -10 10 7 18 13 20 34 6z"/>
<path d="M2960 6740 c0 -6 7 -10 15 -10 8 0 15 2 15 4 0 2 -7 6 -15 10 -8 3
-15 1 -15 -4z"/>
<path d="M3208 6703 c6 -2 18 -2 25 0 6 3 1 5 -13 5 -14 0 -19 -2 -12 -5z"/>
<path d="M8111 11413 c-7 -60 -15 -119 -19 -133 -3 -14 -6 -32 -7 -40 -2 -33
-17 -117 -26 -155 -6 -22 -12 -51 -14 -65 -2 -14 -10 -63 -19 -110 -9 -47 -19
-98 -21 -114 -2 -15 -13 -43 -23 -60 -20 -34 -48 -132 -44 -153 2 -7 -2 -13
-8 -13 -7 0 -7 -6 1 -21 13 -25 3 -165 -12 -175 -5 -3 -7 -9 -4 -14 3 -5 1
-28 -4 -52 -17 -77 -33 -158 -37 -191 -2 -18 -13 -68 -25 -112 -11 -44 -23
-93 -26 -110 -5 -28 -25 -139 -42 -230 -4 -23 -10 -45 -14 -51 -7 -12 -17 -56
-24 -104 -5 -35 -21 -82 -48 -133 -8 -16 -15 -34 -15 -42 0 -7 -7 -18 -15 -25
-24 -20 -71 -144 -68 -177 0 -7 -3 -13 -7 -13 -9 0 -6 -110 4 -132 5 -11 4
-18 -3 -18 -13 0 -4 -78 12 -97 6 -9 6 -13 -2 -13 -14 0 -4 -43 10 -48 5 -2 9
-19 9 -39 0 -26 5 -36 20 -40 11 -3 20 -9 20 -13 0 -25 234 -9 380 26 36 9 85
19 110 24 25 4 89 20 144 34 54 14 117 26 140 26 23 0 52 7 64 16 12 8 22 12
22 9 0 -4 11 7 25 23 14 17 25 34 25 40 0 5 7 15 15 22 11 9 12 17 5 30 -17
31 -12 136 6 155 9 8 13 23 10 32 -4 8 -1 22 5 29 6 7 8 18 4 25 -4 6 -2 15 6
19 10 7 13 35 12 107 -1 54 3 103 9 110 13 16 18 104 7 126 -6 10 -6 17 0 17
9 0 15 31 26 125 3 28 10 60 17 72 8 17 8 26 -2 38 -8 10 -9 15 -1 15 6 0 8
11 5 29 -3 16 -1 32 5 35 7 5 7 15 0 33 -7 19 -6 29 3 35 10 8 10 11 1 15 -18
7 -16 42 3 50 11 4 12 8 4 13 -14 9 -21 248 -8 256 5 3 4 14 -2 24 -7 13 -6
20 2 22 6 2 13 13 15 24 5 21 5 26 0 72 -2 17 0 32 4 32 4 0 10 26 14 58 6 52
14 83 35 137 15 37 34 110 33 122 0 7 4 10 10 6 6 -4 8 2 5 15 -4 12 -3 20 2
17 4 -2 7 13 6 34 0 21 6 46 14 56 8 10 16 34 16 54 3 59 4 62 13 56 5 -3 13
-1 16 5 4 6 1 9 -6 8 -6 -2 -12 7 -14 20 -1 12 2 22 6 22 5 0 3 73 -3 109 -3
17 16 61 26 61 6 0 4 5 -4 10 -9 6 -10 10 -3 10 16 0 27 36 27 90 1 30 5 44
14 42 15 -3 16 14 1 23 -7 5 -5 14 4 29 12 18 12 25 2 39 -11 16 -47 17 -412
17 l-400 0 -12 -107z"/>
<path d="M9490 11505 c9 -11 8 -19 -7 -39 -10 -14 -25 -27 -33 -29 -8 -3 0 -8
18 -12 17 -4 32 -14 32 -21 0 -17 -10 -17 -44 -4 -15 5 -26 6 -26 1 0 -5 5
-11 10 -13 13 -4 23 -78 11 -78 -5 0 -11 6 -14 13 -2 6 -4 0 -3 -14 1 -17 6
-25 14 -22 6 3 12 -2 12 -12 0 -9 -9 -19 -20 -22 -15 -4 -17 -9 -10 -23 16
-30 12 -40 -15 -40 -16 0 -25 -6 -25 -15 0 -8 7 -15 15 -15 10 0 15 -10 14
-32 0 -18 -3 -27 -6 -20 -9 23 -19 12 -20 -25 -1 -21 -4 -51 -6 -68 -2 -16 -5
-36 -5 -43 -1 -8 -7 -10 -14 -6 -10 6 -10 5 0 -8 15 -18 11 -71 -7 -92 -8 -9
-11 -27 -9 -41 3 -14 1 -25 -3 -25 -5 0 -9 -11 -9 -25 0 -16 -6 -25 -16 -25
-13 0 -15 -6 -8 -27 10 -35 8 -88 -5 -133 -19 -70 -28 -131 -20 -136 5 -3 5
-14 -1 -24 -5 -10 -7 -25 -4 -33 3 -8 -1 -21 -8 -28 -8 -9 -13 -39 -13 -84 1
-38 -1 -74 -4 -80 -9 -17 -8 -45 1 -45 15 0 8 -28 -8 -34 -14 -5 -14 -9 -3
-23 11 -13 11 -17 2 -20 -7 -3 -13 -16 -13 -29 0 -14 -5 -35 -12 -47 -6 -12
-13 -39 -15 -61 -2 -22 -8 -45 -14 -52 -5 -7 -7 -25 -4 -41 5 -21 4 -24 -4
-13 -9 12 -11 10 -11 -10 0 -18 -3 -21 -9 -11 -6 9 -10 10 -16 2 -4 -7 -1 -19
7 -28 11 -14 11 -16 -3 -11 -12 5 -16 -1 -17 -23 0 -16 -8 -36 -16 -45 -9 -8
-17 -24 -17 -35 -2 -27 -3 -31 -18 -57 -7 -13 -10 -26 -7 -29 3 -3 -2 -12 -12
-19 -16 -13 -16 -13 0 -14 16 0 16 -3 -2 -33 -13 -23 -18 -45 -15 -75 3 -26 1
-40 -5 -37 -6 4 -10 -7 -10 -24 0 -17 -4 -31 -9 -31 -4 0 -8 -12 -8 -27 -1
-71 -7 -103 -20 -103 -8 0 -11 -4 -8 -10 3 -5 1 -10 -5 -10 -6 0 -9 -4 -5 -9
3 -6 -3 -15 -12 -21 -13 -8 -15 -13 -5 -17 10 -4 10 -8 1 -19 -6 -7 -11 -29
-12 -49 -1 -19 -5 -35 -9 -35 -4 0 -8 -9 -8 -21 0 -11 -5 -30 -12 -42 -6 -12
-13 -46 -15 -76 -2 -30 -5 -57 -8 -59 -7 -7 15 -42 26 -42 6 0 23 -8 37 -18
15 -10 46 -24 70 -31 61 -17 291 -43 327 -36 27 4 32 11 43 58 6 29 12 60 12
70 0 9 5 17 11 17 7 0 9 10 5 25 -3 13 1 44 9 67 8 24 15 57 15 73 1 17 7 64
16 105 8 41 16 91 18 110 2 20 9 55 15 78 7 23 9 47 6 52 -3 5 -1 11 4 14 5 4
8 25 6 48 -2 23 0 49 5 58 8 16 17 87 23 192 1 20 5 34 9 32 5 -4 9 28 10 99
1 15 5 27 9 27 5 0 9 16 9 35 0 19 4 43 9 53 10 17 29 108 37 172 8 64 12 84
27 144 8 33 13 65 10 73 -3 7 0 13 6 13 6 0 11 5 11 11 0 5 -4 8 -9 5 -9 -6 4
68 15 86 3 5 7 38 9 74 2 35 6 81 9 102 7 45 15 101 21 166 3 27 8 53 11 58 7
11 10 36 19 163 4 50 9 92 11 94 2 2 -1 11 -8 18 -9 11 -9 16 -1 21 13 8 31
128 27 178 -1 19 1 34 5 34 4 0 6 13 3 30 -2 16 0 42 5 57 5 15 7 38 5 51 -3
22 -5 22 -169 22 -144 0 -164 -2 -153 -15z m2 -67 c-7 -7 -12 -8 -12 -2 0 14
12 26 19 19 2 -3 -1 -11 -7 -17z"/>
<path d="M10387 11490 c-10 -18 -12 -32 -6 -36 6 -4 5 -14 -4 -28 -8 -12 -18
-42 -22 -66 -4 -25 -12 -51 -18 -58 -5 -7 -7 -15 -4 -18 3 -3 -3 -21 -14 -40
-10 -19 -19 -43 -19 -54 0 -10 -4 -21 -9 -24 -5 -3 -11 -16 -14 -28 -3 -13
-12 -50 -20 -83 -8 -33 -27 -98 -42 -145 -15 -47 -35 -119 -45 -160 -11 -41
-26 -102 -34 -135 -19 -78 -46 -213 -58 -295 -5 -36 -14 -74 -19 -85 -12 -26
-31 -118 -45 -222 -3 -24 -11 -43 -16 -43 -6 0 -8 -16 -6 -35 2 -19 1 -35 -2
-35 -4 0 -7 -15 -8 -34 -1 -19 -8 -65 -16 -103 -8 -37 -18 -86 -21 -108 -4
-22 -9 -51 -11 -65 -3 -14 -10 -38 -16 -53 -6 -15 -8 -30 -5 -33 2 -3 -1 -29
-9 -57 -22 -88 -27 -111 -28 -144 -1 -18 -4 -33 -8 -33 -5 0 -8 -13 -8 -29 0
-16 -4 -41 -9 -54 -5 -13 -12 -37 -15 -53 -3 -16 -12 -60 -21 -99 -15 -63 -30
-142 -54 -277 -4 -26 -13 -53 -18 -60 -6 -7 -16 -31 -23 -54 -11 -36 -10 -45
5 -68 29 -44 184 -108 316 -130 20 -4 72 -28 116 -54 75 -45 156 -82 180 -82
6 0 14 12 18 27 4 16 12 34 18 41 6 7 12 30 14 50 2 20 8 41 13 46 5 5 6 15 3
22 -3 8 -1 20 5 27 5 6 13 44 17 82 4 39 9 86 11 105 2 19 4 44 3 55 0 11 -2
36 -2 55 -1 21 -10 42 -22 52 -19 16 -19 16 -1 15 10 -1 21 4 23 11 3 6 -3 12
-12 12 -9 0 -15 6 -12 13 6 17 -12 49 -24 41 -15 -9 -41 17 -34 34 3 8 0 21
-6 28 -9 11 -8 14 4 14 10 0 13 6 10 20 -3 11 -9 20 -14 20 -5 0 -9 9 -9 20 0
11 5 20 10 20 6 0 10 -4 10 -10 0 -5 5 -10 10 -10 18 0 10 22 -9 27 -12 3 -17
11 -14 19 3 8 0 14 -7 14 -7 0 -10 7 -7 15 4 8 2 17 -2 20 -5 3 -7 15 -3 27 3
14 1 19 -6 14 -6 -4 -11 1 -11 11 1 37 -15 98 -26 105 -7 4 -10 19 -7 33 2 14
-1 32 -8 40 -18 21 -6 30 14 10 9 -9 16 -12 16 -6 0 5 -5 13 -10 16 -24 15
-36 69 -28 120 5 27 9 62 9 78 0 16 6 27 14 27 9 0 12 6 9 15 -7 16 26 105 39
105 4 0 7 14 7 30 0 21 10 40 30 60 17 16 30 37 31 47 0 11 3 13 6 6 2 -7 9
-13 14 -13 4 0 6 7 2 15 -3 9 2 22 12 29 10 7 15 18 11 24 -4 7 -3 12 3 12 5
0 11 -5 13 -12 3 -8 12 -6 29 6 17 13 18 17 5 12 -16 -6 -18 -3 -12 25 3 17 6
35 6 40 0 18 18 8 23 -13 5 -17 9 -19 21 -9 8 7 13 21 11 31 -2 10 3 24 11 31
8 6 14 20 14 30 0 11 5 28 10 39 6 11 15 29 20 40 7 15 7 20 -2 20 -9 0 -9 3
0 12 18 18 15 28 -9 28 -16 0 -19 4 -14 18 4 9 8 72 9 139 1 114 6 142 20 111
3 -7 4 -4 3 7 -2 11 -8 19 -14 18 -7 -2 -6 9 4 27 8 17 21 30 29 30 8 0 12 5
9 10 -3 6 1 10 9 10 15 0 21 17 17 48 -2 10 4 12 18 7 20 -6 20 -4 9 19 -10
23 -9 29 8 45 16 15 19 29 17 80 -2 47 1 63 12 68 17 6 21 33 5 33 -5 0 -8 10
-6 23 2 14 10 22 22 22 10 0 23 6 27 13 5 7 17 10 28 7 11 -4 19 -2 19 4 0 6
-9 11 -19 11 -11 0 -23 5 -27 11 -4 7 2 9 14 7 12 -2 21 2 21 7 0 6 -6 9 -14
7 -11 -2 -11 3 1 28 12 23 13 40 6 74 -8 36 -7 43 5 39 8 -3 12 -14 8 -27 -2
-11 -2 -15 1 -8 12 26 26 12 20 -20 -5 -33 -5 -33 8 -8 8 14 11 29 8 35 -13
20 -9 75 5 75 7 0 14 7 14 15 1 8 2 23 3 32 0 9 -5 18 -12 21 -8 2 -12 -2 -10
-13 2 -10 -3 -20 -9 -22 -8 -3 -13 4 -13 15 0 11 -8 23 -17 25 -10 3 -1 5 20
6 34 1 37 3 37 30 0 35 20 53 21 19 1 -21 1 -21 11 5 12 33 9 37 -34 47 -31 8
-32 8 -5 9 20 1 27 6 27 21 0 14 7 20 21 20 14 0 19 5 17 18 -3 16 -25 17
-265 20 l-261 2 -15 -30z m273 -760 c0 -5 -8 -10 -17 -10 -15 0 -16 2 -3 10
19 12 20 12 20 0z m-16 -46 c3 -8 2 -12 -4 -9 -6 3 -10 10 -10 16 0 14 7 11
14 -7z m-84 -544 c0 -5 -4 -10 -10 -10 -5 0 -10 5 -10 10 0 6 5 10 10 10 6 0
10 -4 10 -10z m-233 -1102 c-3 -8 -6 -5 -6 6 -1 11 2 17 5 13 3 -3 4 -12 1
-19z"/>
<path d="M11449 11493 c-2 -58 -9 -97 -19 -107 -6 -6 -10 -22 -10 -37 0 -15
-7 -44 -16 -65 -17 -41 -60 -200 -66 -246 -2 -15 -7 -30 -11 -34 -4 -4 -7 -20
-7 -35 0 -15 -5 -31 -11 -34 -6 -4 -8 -13 -5 -20 3 -8 -6 -59 -20 -113 -21
-86 -47 -217 -59 -289 -2 -12 -8 -37 -14 -55 -5 -18 -17 -71 -26 -118 -8 -47
-20 -105 -26 -130 -5 -25 -14 -63 -19 -85 -10 -45 -21 -91 -43 -185 -13 -58
-22 -98 -57 -270 -5 -25 -12 -56 -14 -70 -2 -14 -7 -32 -10 -40 -3 -8 -8 -28
-10 -45 -7 -40 -24 -113 -48 -205 -11 -41 -22 -95 -25 -120 -3 -25 -9 -50 -13
-55 -5 -6 -14 -48 -20 -95 -6 -46 -15 -91 -19 -100 -5 -8 -12 -37 -15 -63 -4
-26 -15 -71 -25 -100 -10 -29 -18 -55 -19 -60 -2 -24 -16 -73 -23 -82 -4 -6
-13 -40 -18 -75 -6 -36 -18 -90 -27 -120 -9 -30 -18 -66 -20 -80 -10 -51 -28
-100 -37 -100 -5 0 -7 -7 -3 -15 3 -8 -3 -31 -14 -50 -31 -56 -26 -98 18 -147
62 -68 275 -238 299 -238 3 0 36 -20 72 -44 84 -55 254 -234 328 -345 58 -87
133 -191 176 -246 70 -87 103 -147 129 -230 15 -49 28 -101 28 -116 0 -24 15
-52 101 -180 9 -14 31 -78 48 -141 27 -98 30 -120 19 -142 -19 -44 -97 -49
-83 -6 4 14 2 20 -9 20 -9 0 -19 12 -22 26 -4 14 -9 22 -13 16 -6 -9 -46 -25
-64 -27 -4 0 -11 -5 -15 -11 -4 -5 -16 -11 -27 -11 -11 0 -37 -4 -58 -7 -24
-5 -43 -3 -52 4 -8 7 -18 9 -24 6 -5 -3 -12 0 -14 6 -4 10 -6 10 -6 1 -1 -7
-10 -22 -22 -34 -14 -14 -19 -29 -16 -46 6 -31 -17 -93 -27 -72 -3 8 -3 -1 0
-20 5 -25 3 -32 -6 -26 -9 5 -11 4 -6 -4 4 -6 12 -9 17 -6 5 4 9 1 9 -5 0 -6
4 -9 8 -6 9 5 58 -103 54 -118 -2 -5 4 -6 13 -3 9 4 15 1 15 -7 0 -7 9 -21 20
-31 11 -10 20 -26 20 -36 0 -10 9 -23 20 -29 10 -6 17 -17 14 -24 -3 -8 -1
-17 5 -21 6 -3 11 1 11 10 0 28 65 158 105 210 21 28 45 65 53 83 9 17 22 32
29 32 17 0 17 -4 -7 -50 -11 -22 -20 -44 -20 -49 0 -6 24 -35 53 -65 28 -29
75 -79 102 -109 28 -31 54 -56 58 -57 5 0 22 -14 38 -31 21 -22 28 -38 23 -52
-5 -16 -3 -19 11 -14 14 6 16 1 13 -29 -1 -19 2 -38 7 -42 6 -4 17 -20 25 -37
8 -16 25 -39 37 -50 13 -11 23 -25 23 -31 0 -10 25 -14 103 -17 15 0 27 -6 27
-13 0 -6 7 -15 16 -18 22 -8 24 -8 24 8 0 14 37 10 81 -9 10 -3 20 -1 24 5 6
9 9 9 15 -1 5 -8 31 -12 72 -12 43 0 55 -2 38 -8 -28 -8 -22 -11 30 -14 67 -4
71 -5 66 -14 -3 -5 5 -8 18 -7 13 0 22 4 19 9 -2 4 8 7 22 7 20 0 26 4 21 15
-6 17 20 20 44 5 13 -8 12 -10 -3 -10 -10 0 -15 -4 -12 -10 3 -5 32 -10 64
-10 52 0 59 2 65 23 9 34 8 37 -15 37 -14 0 -19 5 -16 14 3 7 0 19 -6 25 -8 8
-8 11 1 11 6 0 15 -7 20 -16 7 -13 10 -14 21 0 10 12 8 17 -9 26 -12 7 -19 18
-16 25 6 15 -18 45 -36 45 -6 0 -3 -9 7 -20 10 -11 15 -23 12 -27 -4 -3 -7 -1
-7 7 0 10 -3 10 -15 0 -8 -7 -16 -10 -16 -6 -3 13 -7 26 -9 31 -1 3 -3 11 -4
18 -2 14 -29 11 -34 -4 -2 -6 -10 -5 -19 2 -12 10 -17 10 -24 -2 -8 -10 -9 -8
-4 9 5 16 2 22 -9 22 -9 0 -16 -4 -16 -9 0 -4 -19 -5 -42 -1 -28 5 -48 4 -56
-3 -20 -16 -62 -18 -69 -1 -3 8 -15 14 -27 14 -19 0 -22 -4 -18 -28 2 -19 -1
-29 -10 -29 -7 0 -24 -3 -38 -6 -14 -4 -19 -4 -12 -1 6 3 9 10 6 16 -3 5 -14
2 -25 -8 -24 -21 -34 -13 -19 15 9 18 8 21 -10 21 -43 0 -100 24 -100 43 0 11
-5 17 -12 14 -7 -2 -12 -12 -10 -22 2 -11 -2 -15 -10 -13 -7 3 -11 15 -10 28
3 18 0 21 -13 17 -9 -4 -18 -1 -21 8 -3 7 -11 12 -18 9 -7 -3 -25 2 -40 10
-16 8 -35 12 -42 9 -8 -3 -14 0 -14 6 0 6 11 11 25 11 14 0 25 4 25 9 0 6 -11
6 -27 1 -55 -16 -57 -16 -61 10 -3 21 -2 22 12 11 13 -11 20 -10 43 7 20 14
34 17 50 11 15 -6 23 -3 27 8 4 10 15 14 35 11 23 -3 31 0 36 16 4 12 6 28 5
35 -1 12 1 12 12 4 9 -8 19 -9 28 -3 10 7 11 10 3 10 -7 0 -13 5 -13 10 0 6 6
10 14 10 7 0 21 11 31 23 12 17 24 22 41 19 13 -2 31 1 38 7 21 18 116 25 116
9 1 -8 6 -7 14 5 16 21 26 22 26 2 0 -8 7 -15 15 -15 9 0 12 6 9 15 -8 21 13
19 25 -2 9 -16 12 -16 21 -3 9 13 12 13 21 -4 9 -15 13 -16 20 -5 6 10 9 11 9
1 0 -9 11 -10 40 -6 33 6 39 4 35 -8 -4 -9 0 -18 9 -21 8 -3 17 1 20 9 3 9 10
13 15 9 6 -3 8 -12 5 -20 -4 -10 0 -12 15 -8 12 3 21 10 21 15 0 5 4 6 10 3 5
-3 21 5 34 19 13 14 28 26 35 26 15 0 14 13 -1 29 -11 10 -10 12 1 9 14 -3 31
35 37 87 7 62 12 91 22 135 6 25 13 63 17 85 3 22 10 41 15 43 5 2 12 19 16
38 3 19 9 34 13 34 10 0 13 91 2 103 -5 7 -10 17 -12 22 -1 6 -4 18 -7 27 -2
9 -18 23 -35 32 -18 9 -29 16 -24 16 11 0 -22 60 -33 60 -6 0 -10 5 -10 12 0
6 -6 19 -13 27 -7 9 -19 35 -27 59 -7 23 -17 42 -23 42 -5 0 -7 6 -4 14 5 13
-6 49 -47 151 -18 45 -49 96 -68 114 -10 8 -18 20 -18 26 0 6 -12 24 -27 41
-16 17 -30 39 -31 50 -5 25 -21 44 -39 44 -8 0 -11 5 -8 11 8 12 -23 49 -42
49 -7 0 -13 4 -13 10 0 5 -15 16 -32 24 -49 21 -98 74 -98 106 0 11 -6 20 -14
20 -25 0 -59 221 -37 243 6 6 11 20 11 32 0 11 11 41 25 67 15 28 25 64 25 87
0 22 4 42 9 45 4 3 14 34 20 68 7 35 17 81 22 103 5 22 14 69 20 105 6 36 11
72 13 80 1 8 5 22 8 30 23 59 66 203 68 222 0 5 7 25 16 46 8 22 14 43 13 48
-4 25 3 44 16 44 11 0 14 7 9 25 -4 17 -1 32 9 43 8 9 19 35 22 57 4 22 12 46
17 52 6 7 8 24 6 38 -3 13 -2 26 3 27 11 4 14 91 4 107 -5 9 -2 18 9 27 13 9
14 13 4 17 -8 4 -6 6 5 6 14 1 16 5 7 20 -14 26 -13 31 5 25 15 -6 20 9 16 49
-1 9 3 17 9 17 6 0 10 10 9 23 -1 12 1 30 6 40 4 10 1 30 -8 49 -16 32 -14 53
4 42 5 -3 7 -10 4 -15 -4 -5 -2 -9 2 -9 5 0 14 9 21 20 11 18 10 20 -15 20
-25 1 -26 2 -10 14 19 15 23 41 7 51 -6 4 -8 11 -4 16 3 5 10 7 15 3 21 -13
37 17 34 65 -1 27 -5 54 -9 60 -8 12 18 44 28 34 3 -4 6 2 6 11 0 12 5 16 15
12 19 -7 19 1 1 20 -13 12 -12 20 7 57 12 23 37 56 55 73 17 17 32 37 32 45 0
10 3 10 12 1 18 -18 59 -16 52 3 -4 8 -1 15 5 15 6 0 11 -7 11 -15 0 -17 16
-20 25 -4 5 7 14 4 26 -7 18 -16 19 -16 19 4 0 27 11 28 28 2 7 -11 19 -20 27
-20 8 0 15 -4 15 -10 0 -5 11 -10 25 -10 14 0 25 -4 25 -8 0 -12 101 -8 125 4
20 11 78 11 105 1 40 -14 69 -16 72 -5 3 7 13 13 24 13 10 0 19 5 19 10 0 6 4
16 8 23 5 8 2 12 -10 13 -14 0 -13 2 5 9 18 8 21 15 16 35 -5 19 -2 25 10 25
9 0 16 6 16 13 0 6 11 33 25 59 28 53 33 103 10 112 -8 3 -15 15 -15 27 0 18
-2 19 -15 9 -11 -9 -15 -9 -15 -1 0 7 -21 11 -57 11 -32 0 -65 0 -73 0 -8 0
-52 -2 -97 -5 -54 -4 -83 -2 -83 5 0 5 -9 10 -19 10 -11 0 -23 5 -26 11 -4 6
-13 8 -20 5 -8 -3 -15 0 -17 6 -2 6 -19 11 -36 11 -24 0 -31 4 -28 14 4 9 0
13 -11 11 -11 -2 -19 7 -25 30 -5 18 -13 30 -18 27 -14 -8 -17 72 -6 158 5 42
36 107 67 140 23 25 54 88 65 132 9 39 6 125 -5 139 -8 10 -21 75 -25 131 0
11 -4 25 -8 31 -4 6 -10 58 -14 115 -3 57 -9 111 -13 119 -7 13 -7 51 -1 65 8
18 3 92 -7 103 -9 9 -199 12 -882 12 l-871 0 -1 -27z m1231 -518 c0 -8 -4 -15
-10 -15 -5 0 -7 7 -4 15 4 8 8 15 10 15 2 0 4 -7 4 -15z m-110 -5285 c0 -5 -5
-10 -11 -10 -5 0 -7 5 -4 10 3 6 8 10 11 10 2 0 4 -4 4 -10z m130 -6 c0 -8 -5
-12 -10 -9 -6 4 -8 11 -5 16 9 14 15 11 15 -7z m183 -104 c3 -11 1 -23 -4 -26
-5 -3 -9 6 -9 20 0 31 6 34 13 6z m-223 -20 c0 -5 -4 -10 -10 -10 -5 0 -10 5
-10 10 0 6 5 10 10 10 6 0 10 -4 10 -10z"/>
<path d="M10890 11306 c0 -8 4 -17 9 -20 5 -4 7 3 4 14 -6 23 -13 26 -13 6z"/>
<path d="M10885 11260 c-3 -5 -1 -10 4 -10 6 0 11 5 11 10 0 6 -2 10 -4 10 -3
0 -8 -4 -11 -10z"/>
<path d="M8890 11230 c0 -5 5 -10 10 -10 6 0 10 5 10 10 0 6 -4 10 -10 10 -5
0 -10 -4 -10 -10z"/>
<path d="M6115 11200 c3 -5 13 -10 21 -10 8 0 14 5 14 10 0 6 -9 10 -21 10
-11 0 -17 -4 -14 -10z"/>
<path d="M6058 11193 c7 -3 16 -2 19 1 4 3 -2 6 -13 5 -11 0 -14 -3 -6 -6z"/>
<path d="M6945 11140 c3 -5 8 -10 11 -10 2 0 4 5 4 10 0 6 -5 10 -11 10 -5 0
-7 -4 -4 -10z"/>
<path d="M6365 10960 c-3 -5 -1 -10 4 -10 6 0 11 5 11 10 0 6 -2 10 -4 10 -3
0 -8 -4 -11 -10z"/>
<path d="M6470 10898 c0 -9 5 -20 11 -23 17 -11 18 -2 3 19 -12 17 -14 17 -14
4z"/>
<path d="M10728 10898 c9 -9 15 -9 24 0 9 9 7 12 -12 12 -19 0 -21 -3 -12 -12z"/>
<path d="M10785 10880 c3 -5 8 -10 11 -10 2 0 4 5 4 10 0 6 -5 10 -11 10 -5 0
-7 -4 -4 -10z"/>
<path d="M10720 10860 c0 -5 5 -10 10 -10 6 0 10 5 10 10 0 6 -4 10 -10 10 -5
0 -10 -4 -10 -10z"/>
<path d="M6511 10814 c0 -11 3 -14 6 -6 3 7 2 16 -1 19 -3 4 -6 -2 -5 -13z"/>
<path d="M10732 10805 c0 -16 2 -22 5 -12 2 9 2 23 0 30 -3 6 -5 -1 -5 -18z"/>
<path d="M10631 10594 c0 -11 3 -14 6 -6 3 7 2 16 -1 19 -3 4 -6 -2 -5 -13z"/>
<path d="M10630 10531 c0 -5 5 -13 10 -16 6 -3 10 -2 10 4 0 5 -4 13 -10 16
-5 3 -10 2 -10 -4z"/>
<path d="M10610 10490 c0 -5 7 -10 15 -10 8 0 15 5 15 10 0 6 -7 10 -15 10 -8
0 -15 -4 -15 -10z"/>
<path d="M10605 10351 c-3 -5 -1 -12 5 -16 5 -3 10 1 10 9 0 18 -6 21 -15 7z"/>
<path d="M10645 10210 c-3 -5 -1 -10 4 -10 6 0 11 5 11 10 0 6 -2 10 -4 10 -3
0 -8 -4 -11 -10z"/>
<path d="M10585 10130 c3 -5 8 -10 11 -10 2 0 4 5 4 10 0 6 -5 10 -11 10 -5 0
-7 -4 -4 -10z"/>
<path d="M10490 9970 c0 -5 5 -10 10 -10 6 0 10 5 10 10 0 6 -4 10 -10 10 -5
0 -10 -4 -10 -10z"/>
<path d="M10471 9944 c0 -11 3 -14 6 -6 3 7 2 16 -1 19 -3 4 -6 -2 -5 -13z"/>
<path d="M12890 9689 c0 -5 5 -7 10 -4 6 3 10 8 10 11 0 2 -4 4 -10 4 -5 0
-10 -5 -10 -11z"/>
<path d="M10380 9170 c0 -5 5 -10 10 -10 6 0 10 5 10 10 0 6 -4 10 -10 10 -5
0 -10 -4 -10 -10z"/>
<path d="M6690 9139 c0 -5 5 -7 10 -4 6 3 10 8 10 11 0 2 -4 4 -10 4 -5 0 -10
-5 -10 -11z"/>
<path d="M10375 9030 c-3 -5 -1 -10 4 -10 6 0 11 5 11 10 0 6 -2 10 -4 10 -3
0 -8 -4 -11 -10z"/>
<path d="M10385 8990 c3 -5 8 -10 11 -10 2 0 4 5 4 10 0 6 -5 10 -11 10 -5 0
-7 -4 -4 -10z"/>
<path d="M8880 8900 c0 -5 5 -10 10 -10 6 0 10 5 10 10 0 6 -4 10 -10 10 -5 0
-10 -4 -10 -10z"/>
<path d="M7340 7680 c-9 -6 -10 -10 -3 -10 6 0 15 5 18 10 8 12 4 12 -15 0z"/>
<path d="M8160 7580 c-8 -5 -25 -10 -36 -10 -12 0 -27 -7 -34 -14 -8 -11 -18
-12 -36 -5 -37 13 -41 12 -53 -21 -5 -16 -15 -30 -21 -30 -6 0 -8 -4 -5 -10 3
-5 1 -10 -4 -10 -6 0 -10 -3 -10 -7 4 -23 -3 -35 -15 -30 -16 6 -41 -18 -50
-50 -4 -13 -13 -23 -21 -23 -7 0 -20 -6 -28 -14 -12 -12 -18 -13 -41 -1 -22
12 -47 13 -87 6 -13 -2 -41 -54 -46 -85 -3 -17 -13 -47 -23 -66 -10 -19 -20
-49 -23 -66 -5 -33 -27 -73 -62 -114 -32 -37 -77 -123 -115 -220 -18 -47 -37
-90 -42 -97 -6 -7 -11 -24 -12 -38 -2 -14 -11 -34 -20 -44 -9 -10 -16 -22 -15
-27 2 -5 -3 -29 -10 -54 -27 -97 -45 -146 -63 -169 -16 -21 -18 -37 -13 -110
2 -47 10 -101 16 -120 14 -42 17 -293 5 -442 -7 -90 -6 -117 9 -173 20 -75 17
-163 -9 -236 -12 -34 -16 -84 -16 -202 0 -177 -18 -293 -57 -372 -13 -27 -21
-51 -18 -55 3 -3 25 5 48 17 23 12 48 22 55 22 6 0 12 6 12 13 0 7 14 26 30
42 17 16 30 37 30 46 0 10 24 42 53 72 55 57 105 81 190 92 76 10 61 27 -35
40 -25 4 -56 16 -67 26 -11 10 -25 19 -30 19 -17 0 -23 20 -11 35 15 18 5 35
-21 35 -17 0 -19 4 -13 37 5 29 3 39 -12 50 -18 13 -18 14 0 44 10 17 15 33
12 36 -3 3 0 15 5 26 9 16 8 22 -6 29 -15 9 -15 12 -1 27 8 9 15 25 14 36 0
11 3 32 7 48 5 18 3 27 -5 27 -7 0 -3 13 10 35 12 19 20 43 19 52 -3 23 11 56
28 66 22 13 15 27 -14 27 -27 1 -27 1 -8 16 11 8 27 19 35 24 13 8 13 13 -4
40 l-18 32 27 28 c19 20 25 34 21 48 -5 14 -1 24 11 31 10 6 12 11 6 11 -21 0
-15 41 7 47 22 6 27 19 9 25 -19 6 2 56 42 102 22 25 34 46 28 48 -16 5 -1 48
16 48 8 0 19 10 26 22 10 18 9 20 -5 15 -15 -6 -15 -4 -1 23 15 29 35 40 35
19 0 -5 5 -7 11 -3 8 4 7 9 -2 15 -11 7 -10 11 5 22 11 8 21 27 23 43 3 25 10
55 29 123 2 7 11 10 20 7 8 -3 13 -2 10 3 -3 5 2 24 11 42 26 52 25 62 -4 54
-16 -4 -22 -2 -18 5 3 5 3 15 -1 21 -4 8 -13 4 -25 -12 -10 -13 -19 -19 -19
-13 0 15 43 70 83 107 22 20 49 63 73 117 20 47 49 108 64 135 15 28 31 63 34
78 4 16 27 71 52 123 46 96 67 146 64 153 -1 2 3 7 9 10 11 7 101 261 101 286
0 18 -16 20 -24 3 -3 -9 -8 -8 -16 5 -12 19 -28 21 -50 7z"/>
<path d="M15330 7375 c-13 -14 -20 -25 -15 -25 5 0 0 -7 -11 -15 -10 -8 -15
-15 -10 -15 5 0 3 -7 -4 -15 -7 -8 -9 -15 -5 -15 4 0 3 -6 -3 -12 -18 -24 -25
-80 -11 -89 11 -7 10 -9 -3 -9 -10 0 -18 -4 -18 -10 0 -5 5 -10 11 -10 6 0 9
-7 5 -15 -3 -8 -1 -15 5 -15 6 0 7 -6 3 -12 -5 -10 -4 -10 5 -2 7 7 28 10 47
7 l34 -5 0 141 c0 78 -1 141 -3 141 -2 0 -14 -11 -27 -25z"/>
<path d="M6782 7364 c-21 -14 -22 -34 -2 -34 11 0 40 29 40 41 0 13 -13 11
-38 -7z"/>
<path d="M7121 7276 c-17 -18 -19 -25 -9 -29 18 -6 48 11 48 28 0 25 -16 25
-39 1z"/>
<path d="M6598 7233 c6 -2 18 -2 25 0 6 3 1 5 -13 5 -14 0 -19 -2 -12 -5z"/>
<path d="M7072 7194 c-32 -36 -40 -54 -23 -54 13 0 61 59 61 76 0 20 -2 18
-38 -22z"/>
<path d="M6515 7182 c-16 -10 -42 -22 -56 -25 -15 -4 -53 -33 -84 -64 -32 -32
-62 -57 -67 -55 -4 1 -8 -7 -8 -18 0 -11 -4 -20 -10 -20 -5 0 -10 -6 -10 -14
0 -8 -10 -18 -22 -21 -13 -4 -48 -18 -78 -30 -30 -13 -71 -26 -91 -29 -20 -4
-43 -14 -52 -24 -32 -34 -52 -59 -63 -78 -12 -21 -25 -22 -96 -14 -37 5 -49 3
-53 -9 -6 -14 -8 -14 -16 2 -10 17 -12 16 -30 -7 -10 -13 -19 -29 -19 -34 0
-5 -7 -15 -15 -22 -16 -14 -34 -51 -55 -115 -7 -22 -21 -52 -31 -67 -25 -35
-25 -37 17 -54 l36 -15 -6 -62 c-6 -64 6 -245 23 -352 7 -42 32 -103 81 -198
50 -99 70 -149 70 -176 0 -23 7 -45 20 -59 25 -27 25 -28 -5 -27 -19 1 -36 18
-75 78 -27 42 -54 79 -60 82 -5 3 -10 14 -10 24 0 10 -11 28 -24 40 -15 14
-24 18 -22 10 3 -22 30 -79 37 -79 3 0 19 -30 34 -67 16 -38 32 -70 36 -73 15
-11 59 -124 59 -152 0 -22 -12 -40 -47 -74 -43 -40 -51 -44 -83 -39 -19 4 -41
11 -47 17 -7 6 -13 8 -13 5 0 -3 -14 -2 -32 3 -21 7 -36 6 -45 -1 -9 -8 -17
-8 -27 0 -11 9 -15 9 -18 0 -3 -9 -9 -9 -26 0 -15 8 -22 8 -22 1 0 -6 -6 -10
-12 -9 -38 5 -40 0 -36 -61 4 -49 2 -60 -11 -61 -11 0 -12 -2 -3 -6 6 -2 12
-14 12 -25 0 -17 -2 -18 -15 -8 -14 11 -14 10 -5 -15 11 -29 5 -65 -14 -77 -7
-5 -6 -8 4 -8 11 0 12 -2 3 -8 -7 -4 -14 -17 -16 -27 -1 -11 -10 -35 -19 -52
-9 -18 -13 -35 -8 -38 5 -3 11 1 13 7 3 7 6 3 6 -10 1 -19 -3 -22 -19 -17 -15
5 -18 3 -14 -9 3 -9 2 -16 -4 -16 -5 0 -12 -9 -15 -20 -3 -11 -1 -18 4 -14 5
3 9 -4 9 -15 0 -10 -5 -21 -11 -23 -11 -4 -14 -18 -18 -73 -2 -26 -55 -57 -87
-49 -13 3 -24 2 -24 -4 0 -5 -11 -12 -25 -14 -14 -3 -25 -1 -25 3 0 5 -6 6
-12 4 -25 -9 -105 -14 -328 -20 -221 -6 -226 -6 -268 17 -46 24 -56 38 -98
132 -26 60 -83 126 -107 126 -8 0 -22 9 -32 20 -10 11 -26 20 -37 20 -10 0
-18 4 -18 10 0 15 -43 5 -48 -11 -3 -8 -11 -18 -18 -22 -8 -4 -14 -16 -14 -25
0 -19 -40 -58 -54 -54 -5 2 -22 -2 -37 -7 -18 -6 -29 -6 -29 0 0 5 -12 9 -28
9 -15 0 -37 7 -49 15 -15 10 -24 12 -28 5 -5 -8 -11 -8 -19 -1 -7 6 -15 9 -18
6 -8 -8 -68 56 -68 72 0 7 10 13 23 13 21 1 21 1 3 11 -15 9 -16 13 -5 20 12
8 11 11 -2 22 -9 6 -15 19 -14 27 2 14 -27 49 -42 51 -5 1 -19 6 -33 11 -13 5
-58 11 -100 13 -41 2 -95 11 -120 20 -70 25 -80 27 -153 34 -38 3 -71 3 -73
-1 -3 -5 -14 -8 -26 -8 -23 0 -90 -29 -99 -43 -12 -17 -82 -40 -131 -43 -26
-1 -56 -7 -67 -13 -25 -14 -34 -14 -26 -1 3 6 -1 10 -9 10 -8 0 -17 -9 -21
-19 -3 -11 -13 -22 -23 -26 -32 -12 -82 -50 -82 -62 0 -7 -7 -13 -15 -13 -9 0
-15 -9 -15 -25 0 -16 -6 -25 -15 -25 -9 0 -15 -9 -15 -22 0 -18 -2 -20 -10 -8
-7 12 -10 11 -15 -5 -15 -44 -31 -68 -52 -76 -12 -4 -27 -17 -33 -29 -6 -11
-20 -20 -30 -20 -11 0 -19 -4 -17 -9 1 -5 -12 -25 -30 -44 -18 -19 -35 -46
-39 -61 -3 -15 -17 -32 -30 -38 -13 -6 -24 -15 -24 -19 0 -4 -5 -20 -12 -36
-6 -15 -12 -43 -14 -62 -2 -19 -8 -38 -15 -42 -6 -3 -9 -12 -5 -18 4 -6 -3
-18 -16 -28 -12 -10 -40 -35 -61 -55 -22 -21 -43 -38 -47 -38 -4 0 -10 -9 -13
-20 -3 -14 -14 -20 -31 -20 -14 0 -26 -4 -26 -8 0 -4 -16 -9 -36 -9 -44 -1
-79 -18 -115 -55 -14 -16 -31 -28 -38 -28 -6 0 -11 -4 -11 -8 0 -12 -69 -82
-80 -82 -5 0 -17 -12 -27 -27 -9 -16 -33 -44 -53 -64 -19 -19 -57 -60 -85 -90
-27 -30 -67 -65 -89 -78 -21 -13 -63 -46 -93 -72 -31 -27 -59 -46 -64 -43 -5
3 -26 -7 -46 -21 -21 -14 -54 -30 -74 -35 -23 -6 -48 -25 -70 -51 -49 -60
-157 -169 -168 -169 -5 0 -14 -13 -19 -29 -10 -29 -69 -81 -91 -81 -7 0 -9 -5
-6 -10 3 -6 -4 -15 -17 -20 -34 -16 -62 -33 -81 -50 -38 -35 -48 -41 -57 -35
-6 3 -10 1 -10 -4 0 -6 -9 -11 -20 -11 -11 0 -23 -7 -26 -15 -8 -19 -89 -12
-114 9 -8 8 -45 17 -82 21 -38 4 -68 11 -68 15 0 9 51 73 62 78 3 2 35 38 69
80 35 42 72 86 83 97 10 11 37 57 59 103 36 75 39 85 27 107 -9 18 -22 25 -42
25 -15 0 -28 -4 -28 -10 0 -5 -6 -10 -14 -10 -8 0 -21 -6 -28 -13 -16 -17 -59
-41 -73 -42 -6 0 -22 -10 -35 -23 -14 -13 -45 -33 -70 -45 -24 -12 -73 -50
-109 -84 -37 -35 -77 -65 -94 -69 -16 -3 -54 -30 -83 -58 -30 -29 -54 -51 -54
-49 0 13 -80 -57 -113 -99 -23 -29 -47 -57 -55 -61 -7 -5 -17 -20 -23 -34 -9
-24 -12 -25 -69 -18 l-60 7 0 -1576 0 -1576 7680 0 7680 0 0 955 0 955 -21 0
c-33 0 -212 50 -237 66 -25 16 -75 21 -109 10 -13 -4 -36 -1 -55 8 -18 8 -50
17 -72 21 -21 3 -46 10 -55 15 -15 9 -141 42 -221 59 -19 5 -52 15 -74 24 -21
10 -50 17 -65 17 -14 0 -35 7 -45 15 -31 23 3 29 66 12 39 -10 83 -13 168 -8
103 6 116 4 128 -11 16 -22 36 -24 28 -3 -3 8 -1 15 4 15 5 0 12 -11 16 -25 3
-14 11 -22 16 -19 6 4 20 -5 32 -18 11 -14 38 -31 59 -37 20 -7 35 -16 33 -19
-2 -4 13 -6 35 -4 21 2 39 9 39 16 0 8 2 8 8 0 11 -16 69 3 74 24 3 12 -2 24
-13 31 -11 6 -19 18 -19 26 0 8 -7 16 -15 16 -18 2 -34 6 -37 9 -2 1 -14 4
-28 6 -96 13 -168 32 -190 50 -8 7 -27 16 -43 19 -15 4 -30 11 -33 16 -3 5
-20 16 -37 23 -28 12 -148 121 -154 139 -9 26 -39 74 -52 84 -9 6 -16 16 -16
22 0 6 -2 10 -5 9 -3 -2 -33 24 -68 57 -81 78 -109 100 -144 111 -10 4 -18 10
-18 15 0 5 -3 8 -7 7 -9 -1 -30 6 -80 28 -17 8 -45 17 -62 20 -17 4 -34 11
-37 15 -3 5 -15 9 -27 9 -12 0 -34 6 -48 14 -14 7 -38 16 -54 20 -16 4 -61 26
-99 49 -39 23 -84 48 -101 56 -16 7 -52 24 -80 37 -27 13 -57 26 -65 29 -8 3
-28 14 -45 25 -16 11 -55 32 -85 46 -30 15 -62 31 -70 36 -8 4 -30 15 -47 23
-18 9 -33 19 -33 24 0 10 -39 27 -53 23 -4 -1 -7 5 -5 15 2 12 -6 19 -27 24
-16 4 -25 7 -20 8 6 1 -14 15 -43 32 -30 17 -51 33 -49 36 3 3 -3 14 -13 26
-11 11 -17 24 -14 29 3 4 0 8 -5 8 -36 0 34 98 181 252 l102 107 30 -22 c16
-11 27 -16 23 -10 -4 6 -1 14 5 16 9 4 7 6 -3 6 -28 2 -47 35 -53 93 -9 90
-62 182 -151 260 -41 36 -53 41 -89 39 -45 -2 -105 19 -126 44 -20 24 -4 30
45 17 25 -7 50 -12 55 -12 16 0 -1 29 -22 35 -21 7 -98 75 -98 87 0 11 -38 48
-50 48 -5 0 -10 5 -10 10 0 6 -6 10 -13 10 -8 0 -19 11 -25 25 -8 16 -20 25
-35 25 -13 0 -37 14 -54 33 -17 17 -45 42 -62 55 -17 13 -31 29 -31 37 0 7 -7
15 -15 19 -8 3 -15 10 -15 16 0 15 -55 70 -69 70 -6 0 -19 16 -28 35 -9 19
-19 35 -23 35 -3 0 -36 21 -72 48 -95 67 -138 92 -138 82 0 -4 6 -11 13 -13 7
-3 5 -6 -6 -6 -10 -1 -20 6 -23 14 -4 8 -17 15 -30 15 -13 0 -24 5 -24 10 0 6
-6 10 -12 9 -27 -3 -38 1 -38 15 0 19 -61 66 -84 66 -13 0 -16 -5 -11 -20 8
-24 -7 -26 -26 -4 -23 28 -55 34 -114 22 -30 -6 -55 -14 -55 -18 0 -4 32 -7
71 -5 39 1 65 -2 57 -6 -9 -6 -6 -11 12 -18 20 -8 10 -10 -48 -9 -97 1 -108
-9 -29 -26 37 -9 25 -26 -18 -26 -37 0 -54 -14 -29 -24 9 -3 12 -11 8 -18 -5
-9 -2 -8 10 1 13 11 20 11 28 3 7 -7 8 -12 3 -12 -6 0 -4 -4 4 -9 11 -7 10
-13 -3 -33 -19 -30 -12 -58 15 -58 10 0 29 -10 42 -22 12 -13 25 -24 30 -24 4
-1 12 -2 18 -3 5 0 7 -6 4 -11 -4 -6 -1 -18 6 -26 11 -14 9 -14 -21 -2 -27 11
-46 30 -56 56 -1 1 -12 -2 -25 -7 -13 -5 -18 -10 -11 -10 9 -1 11 -8 7 -22 -4
-13 -3 -19 2 -16 10 6 83 -57 83 -70 0 -14 -15 -29 -35 -38 -18 -7 -18 -9 -2
-12 9 -3 17 -9 17 -14 0 -5 8 -9 17 -9 14 0 14 -3 5 -12 -9 -9 -15 -10 -20 -2
-6 10 -64 51 -116 82 -33 19 -71 11 -71 -15 0 -13 -6 -28 -13 -35 -28 -28 -2
-74 47 -84 39 -8 36 -30 -3 -26 -20 3 -27 0 -24 -10 3 -7 15 -12 27 -11 27 3
28 -23 0 -30 -17 -5 -19 -9 -10 -25 8 -16 7 -21 -4 -26 -18 -6 -20 -33 -3 -38
15 -5 1 -28 -18 -28 -9 0 -14 11 -14 35 0 40 -11 44 -43 14 -22 -20 -22 -21
-3 -35 19 -13 19 -14 1 -34 -10 -11 -18 -34 -17 -50 1 -26 -6 -33 -39 -50 -21
-11 -39 -25 -39 -31 0 -6 -6 -9 -13 -6 -21 8 -38 -8 -31 -27 4 -11 14 -16 24
-13 13 3 19 -3 23 -22 7 -33 -1 -45 -19 -30 -11 9 -18 8 -34 -6 -10 -9 -19
-20 -18 -24 4 -33 -3 -40 -29 -30 -14 5 -33 7 -40 4 -23 -8 -4 -25 28 -25 26
0 29 -3 24 -20 -4 -12 -1 -28 7 -37 11 -15 11 -16 -7 -9 -24 9 -95 19 -77 10
6 -3 10 -10 7 -14 -3 -5 3 -18 15 -30 11 -11 20 -24 20 -30 0 -15 -20 -12 -26
4 -8 21 -31 27 -59 14 -31 -14 -23 -28 18 -28 24 0 28 -3 17 -10 -8 -5 -27
-10 -42 -10 -36 0 -45 -18 -16 -29 23 -10 23 -10 1 -10 -12 -1 -23 -6 -25 -13
-3 -8 -13 -7 -36 5 -41 20 -45 -2 -5 -28 24 -16 27 -16 38 -1 14 19 35 20 70
4 19 -9 22 -14 13 -21 -9 -6 -8 -7 5 -3 20 6 63 -12 52 -22 -11 -11 -53 -13
-60 -2 -3 5 -13 10 -21 10 -9 0 -12 -5 -8 -12 5 -8 0 -9 -15 -5 -17 4 -21 2
-17 -10 3 -8 6 -16 6 -19 0 -2 21 -1 47 3 35 5 44 3 38 -6 -4 -7 -18 -11 -32
-8 -17 3 -23 1 -19 -9 4 -11 -8 -13 -60 -11 -53 2 -67 -1 -75 -15 -8 -14 -15
-15 -34 -8 -14 5 -25 7 -25 3 0 -16 -59 51 -64 73 -5 17 -13 24 -30 24 -14 0
-26 4 -28 8 -1 5 -16 12 -33 16 l-30 7 33 -31 c17 -17 32 -34 32 -38 0 -4 18
-18 40 -32 22 -13 40 -30 40 -37 0 -7 10 -21 22 -33 12 -11 18 -20 13 -20 -5
0 0 -6 11 -14 38 -28 7 -25 -36 4 -66 44 -100 73 -100 87 0 7 -6 13 -14 13
-22 0 -38 24 -24 38 8 8 7 13 -6 18 -39 15 -43 -28 -5 -65 33 -34 37 -55 12
-70 -17 -10 -17 -10 1 -11 12 0 16 -5 12 -15 -3 -10 1 -15 12 -15 9 0 23 -4
31 -9 10 -6 5 -13 -19 -25 -39 -19 -80 -12 -74 12 4 17 -68 102 -86 102 -6 0
-10 5 -10 10 0 6 12 10 27 10 18 0 24 3 17 10 -10 10 -84 2 -84 -9 0 -4 10
-13 21 -21 12 -8 34 -25 48 -37 24 -21 24 -22 6 -23 -11 0 -29 6 -40 14 -11 7
-32 16 -47 20 -16 3 -28 11 -28 16 0 6 -9 10 -20 10 -11 0 -28 4 -38 9 -35 18
-116 33 -120 22 -6 -18 -25 -12 -62 19 -23 20 -38 26 -45 19 -7 -7 -5 -13 5
-19 12 -7 13 -13 4 -27 -10 -15 -7 -24 20 -51 17 -19 24 -30 14 -27 -9 4 -25
1 -35 -5 -16 -10 -16 -11 0 -6 9 3 17 1 17 -4 0 -6 7 -10 15 -10 8 0 15 -6 15
-13 0 -7 16 -21 36 -32 l36 -19 19 23 c10 12 23 20 28 17 13 -8 7 -41 -7 -42
-7 -1 -17 -2 -23 -3 -6 0 -9 -8 -5 -16 16 -43 -84 9 -168 87 -28 27 -57 48
-64 48 -23 0 -7 25 19 28 38 6 43 18 18 43 -22 22 -22 23 -3 30 14 6 11 7 -13
6 -18 -1 -32 3 -33 8 0 6 -15 15 -33 22 -45 16 -55 16 -29 -3 28 -19 20 -33
-16 -31 -18 2 -30 -4 -37 -18 -8 -15 -19 -19 -43 -17 -18 2 -32 -1 -32 -7 0
-6 10 -11 23 -12 12 0 17 -3 11 -5 -6 -3 -48 5 -95 18 -50 13 -116 22 -162 22
-73 1 -90 6 -67 21 8 5 7 11 -1 21 -6 7 -15 11 -20 8 -5 -3 -9 -1 -9 4 0 6 -9
8 -20 5 -10 -3 -32 4 -49 16 -16 12 -42 21 -58 22 l-28 0 25 10 c23 10 23 11
-25 34 -28 13 -60 25 -71 25 -12 0 -25 7 -28 16 -5 12 -14 15 -36 10 -17 -3
-30 -2 -30 3 0 5 -14 11 -31 15 -33 6 -31 22 5 36 17 7 15 9 -16 9 -21 1 -38
6 -38 11 0 6 -12 11 -27 11 -24 2 -25 2 -5 6 18 4 21 9 16 31 -4 15 -9 29 -11
32 -3 3 -36 5 -74 5 -46 0 -70 4 -74 13 -3 7 4 12 18 12 18 0 19 2 7 10 -8 5
-28 10 -45 10 -42 0 -63 15 -40 27 15 9 11 11 -21 17 -22 4 -48 10 -58 13 -18
5 -18 6 4 18 13 7 30 11 37 8 7 -3 13 0 13 6 0 6 -20 11 -47 11 -47 1 -47 1
-23 15 24 14 24 14 -22 15 -47 0 -80 19 -36 21 22 0 22 1 3 9 l-20 9 20 0 c15
1 17 3 6 10 -8 5 -24 3 -40 -5 -14 -8 -31 -14 -38 -14 -19 0 -26 20 -13 35 10
12 9 15 -6 15 -11 0 -32 7 -48 15 -15 8 -35 15 -42 15 -8 0 -14 6 -14 13 0 8
-10 19 -22 25 -18 8 -19 11 -6 11 42 2 23 21 -32 32 -65 13 -89 29 -43 29 25
1 26 2 10 11 -21 12 -67 4 -67 -11 0 -6 5 -10 11 -10 5 0 7 -4 4 -10 -3 -5
-21 -10 -40 -10 -37 0 -56 -17 -34 -31 11 -6 9 -12 -6 -31 -43 -49 -45 -50
-58 -40 -7 6 -28 14 -47 17 -41 7 -50 12 -50 30 0 7 -9 17 -20 20 -11 3 -20
10 -20 15 0 13 -102 115 -135 134 -16 10 -43 35 -59 56 -28 38 -54 56 -64 46
-6 -6 69 -80 120 -118 37 -28 83 -102 73 -118 -3 -5 3 -18 15 -30 24 -24 24
-26 5 -34 -8 -3 -21 2 -30 10 -13 14 -15 14 -15 0 0 -9 4 -16 10 -16 5 0 9
-11 8 -25 -3 -30 -14 -33 -23 -6 -7 22 -32 35 -41 20 -3 -5 1 -20 8 -32 8 -12
22 -42 31 -67 l17 -45 -21 28 c-11 15 -29 27 -39 27 -10 0 -22 5 -25 10 -3 6
-21 17 -38 26 l-32 16 26 -28 c15 -16 30 -40 34 -53 l7 -24 -23 22 c-12 11
-26 21 -29 21 -4 0 -12 10 -19 23 -6 12 -9 14 -7 5 3 -10 1 -20 -4 -23 -6 -4
-10 6 -10 22 0 38 -13 55 -38 51 -19 -3 -20 -5 -7 -43 20 -56 11 -55 -23 5
-21 36 -31 47 -35 36 -10 -24 -26 -19 -33 11 -6 23 -8 24 -19 10 -7 -10 -17
-17 -23 -17 -6 0 -13 -6 -16 -12 -3 -7 -3 5 -1 27 4 38 4 39 -7 13 -13 -30
-28 -37 -28 -13 0 9 -6 12 -15 9 -8 -4 -15 -1 -15 5 0 6 -7 11 -15 11 -9 0
-15 9 -15 24 0 15 -7 27 -19 31 -13 4 -17 12 -13 27 3 14 1 19 -6 14 -7 -4
-12 -2 -12 3 0 6 -6 11 -14 11 -19 0 -48 -29 -41 -41 4 -5 -1 -9 -9 -9 -9 0
-16 -7 -16 -15 0 -8 -5 -15 -11 -15 -7 0 -5 -9 4 -24 15 -22 15 -24 -3 -19
-22 6 -76 71 -91 109 -8 22 -7 29 6 36 12 7 15 26 14 89 -1 67 -3 78 -15 68
-11 -9 -14 -8 -14 6 0 14 -6 16 -31 11 -17 -3 -35 -6 -40 -6 -5 0 -9 -5 -9
-11 0 -6 9 -8 20 -4 14 4 20 2 20 -9 0 -8 3 -23 7 -33 6 -16 5 -16 -10 -4 -15
12 -17 12 -13 0 12 -37 16 -100 6 -94 -5 3 -10 0 -11 -7 -1 -7 -4 -2 -9 12 -7
23 -8 24 -14 5 -14 -39 -23 -50 -42 -50 -10 1 -18 6 -16 13 1 7 -4 12 -11 12
-21 0 -28 -12 -16 -27 8 -9 8 -13 1 -13 -6 0 -16 8 -21 18 -8 13 -9 8 -4 -20
4 -27 1 -41 -11 -53 -15 -15 -16 -15 -16 5 0 16 -4 20 -19 15 -11 -3 -23 -1
-26 6 -6 8 -10 7 -16 -2 -7 -12 -9 -11 -9 1 -1 13 -2 13 -13 -1 -7 -9 -18 -18
-26 -20 -8 -3 -4 -9 12 -16 23 -11 25 -10 20 4 -5 13 -2 15 11 10 10 -4 22 -7
27 -7 5 0 9 -9 9 -19 0 -11 6 -22 13 -25 9 -5 9 -7 -1 -12 -6 -3 -9 -11 -5
-17 8 -14 24 -84 26 -122 3 -35 26 -75 44 -75 9 0 12 -12 10 -35 -1 -19 -5
-35 -8 -35 -12 0 -27 25 -35 54 -6 25 -8 26 -17 11 -5 -9 -7 -32 -4 -51 5 -32
-3 -46 -28 -50 -6 -1 -10 12 -9 28 1 16 -4 32 -11 34 -9 4 -10 15 -4 42 4 20
6 38 3 41 -2 2 -4 -1 -4 -7 0 -7 -9 -12 -20 -12 -11 0 -20 -7 -20 -16 0 -8 5
-12 10 -9 6 3 10 -5 10 -19 0 -13 4 -26 9 -28 5 -1 12 -28 16 -58 6 -51 6 -53
-8 -35 -15 20 -16 20 -27 -5 -8 -20 -10 -12 -6 43 5 67 5 68 -17 61 -19 -6
-20 -5 -8 10 8 9 11 19 7 23 -8 8 -54 -35 -62 -59 -3 -10 -10 -16 -15 -12 -5
3 -7 10 -4 15 9 14 -11 11 -22 -4 -6 -6 -15 -25 -21 -42 -9 -28 -10 -26 -7 18
2 31 11 60 24 78 24 32 20 55 -6 40 -9 -4 -25 -6 -35 -3 -13 3 -19 0 -18 -9 3
-22 -11 -59 -20 -54 -5 3 -14 -13 -22 -35 l-13 -41 -38 34 c-38 36 -48 75 -28
115 4 9 15 31 23 47 9 17 13 35 11 42 -2 6 1 14 6 18 6 3 11 14 11 23 -1 14
-4 13 -20 -6 -11 -13 -24 -21 -29 -18 -21 13 -91 -75 -95 -119 -1 -5 -11 -11
-23 -13 -13 -2 -23 -8 -23 -13 0 -16 -25 -10 -43 11 -20 24 -33 25 -41 4 -10
-26 -26 -5 -26 36 0 31 -3 38 -15 34 -8 -4 -15 -1 -15 5 0 22 -55 1 -82 -31
-26 -31 -54 -98 -51 -125 0 -7 -3 -10 -8 -7 -10 6 -36 -49 -69 -151 -27 -84
-44 -105 -83 -105 -24 0 -28 3 -22 18 17 41 17 52 1 52 -9 0 -16 -6 -16 -13 0
-7 -13 -20 -29 -30 -16 -9 -35 -31 -43 -47 -7 -17 -19 -30 -26 -30 -7 0 -11
-4 -8 -9 3 -5 -4 -11 -15 -14 -20 -5 -21 -3 -15 36 13 92 17 177 8 177 -5 0
-7 11 -5 24 4 21 2 24 -17 19 -20 -5 -21 -4 -11 15 6 12 9 33 5 46 -3 14 0 38
9 55 8 16 11 34 7 41 -4 7 4 30 20 54 15 22 42 66 59 97 34 60 31 69 -22 69
-11 0 -28 6 -36 14 -9 7 -37 21 -63 31 -26 10 -67 35 -90 57 -38 34 -47 38
-78 33 -112 -18 -109 -19 -121 8 -10 22 -8 33 10 68 12 23 20 48 17 55 -6 15
-78 54 -99 54 -20 0 -47 33 -47 56 1 10 9 43 19 73 17 49 18 59 5 100 -18 61
-18 125 2 162 8 16 13 38 10 47 -11 34 14 86 65 134 57 53 86 56 110 11 l13
-25 18 22 c26 32 22 47 -12 54 -22 4 -30 11 -30 26 0 11 -7 32 -16 45 -19 30
-15 69 9 73 13 3 22 -6 30 -27 9 -24 18 -31 37 -31 21 0 28 -7 35 -32 8 -28
15 -33 40 -33 23 0 33 7 43 28 15 31 24 33 42 12 17 -20 22 -19 62 15 29 25
34 35 30 62 -11 84 1 178 22 178 7 0 27 -18 45 -40 17 -22 38 -40 46 -40 8 0
16 -8 17 -17 1 -10 2 -25 4 -33 1 -8 2 -21 3 -28 1 -7 9 -12 19 -10 23 4 29
-54 8 -84 -28 -40 -16 -98 21 -98 7 0 13 6 13 13 0 7 21 30 46 52 44 36 48 37
60 20 9 -13 10 -22 4 -30 -8 -9 -5 -14 10 -18 11 -3 22 -1 25 3 8 14 9 124 1
143 -5 10 -4 17 3 17 6 0 11 11 11 25 0 46 -19 25 -43 -47 -8 -22 -48 -12 -54
14 -3 10 -9 18 -12 18 -4 0 -7 16 -6 35 1 30 -3 35 -21 35 -12 0 -24 -6 -27
-12 -3 -10 -8 -10 -17 -2 -9 9 -4 20 20 47 39 45 66 44 109 -5 38 -43 56 -49
47 -14 -4 16 1 32 14 49 11 14 20 37 20 51 0 27 15 36 23 14 2 -7 8 -10 12 -6
4 4 2 21 -4 39 -16 46 -14 66 9 89 26 26 48 25 52 -2 2 -13 3 14 3 59 0 45 -3
85 -7 89 -5 4 -9 -1 -10 -12 0 -10 -2 -23 -3 -29 -2 -5 -3 -22 -4 -37 -1 -19
-5 -26 -15 -22 -11 4 -12 13 -6 35 5 18 5 41 -1 55 -14 37 -11 90 6 104 19 16
35 4 35 -27 0 -25 1 -25 19 -9 16 14 18 23 10 49 -14 48 -11 88 8 109 12 13
14 21 6 29 -8 8 -16 -3 -27 -42 -9 -29 -22 -56 -29 -61 -21 -13 -37 -9 -37 11
0 24 -20 38 -30 21 -4 -7 -16 -9 -28 -6 -18 6 -22 2 -28 -21 -3 -15 -12 -42
-20 -60 -8 -17 -14 -39 -14 -48 0 -12 -6 -16 -20 -12 -25 6 -40 -12 -44 -55
-2 -19 -6 -40 -10 -47 -4 -6 -5 -24 -1 -39 5 -23 1 -30 -25 -45 -16 -10 -30
-15 -31 -10 0 4 -4 -1 -9 -12 -7 -17 -9 -17 -9 -2 -1 21 -14 22 -31 2 -20 -25
-27 -5 -21 59 6 59 27 87 33 45 8 -54 48 -27 56 36 4 39 1 51 -13 61 -10 8
-15 17 -11 21 4 4 11 1 16 -7 14 -22 41 6 34 35 -3 13 -1 26 5 29 6 4 11 19
10 34 -1 25 -2 24 -17 -11 -12 -31 -19 -37 -36 -33 -12 3 -31 6 -43 6 -22 0
-23 4 -23 66 0 59 -2 66 -18 62 -32 -9 -54 16 -49 55 6 45 14 57 32 50 10 -3
20 6 29 28 13 30 12 34 -7 50 -19 15 -20 20 -9 43 15 34 16 32 -9 55 l-21 20
36 36 c36 36 45 55 26 55 -17 0 -11 41 11 68 17 22 19 35 14 69 -5 33 -3 43 8
43 9 0 18 21 26 57 7 31 22 65 32 76 25 27 24 48 -1 54 -11 3 -20 10 -19 17 1
6 1 20 0 30 -1 18 -3 18 -26 -4 -14 -13 -25 -29 -25 -37 0 -7 -4 -13 -10 -13
-14 0 -13 43 1 57 9 9 9 20 0 44 -16 46 -15 50 29 109 41 56 51 90 25 90 -14
0 -21 37 -16 78 2 11 -7 12 -37 7 -40 -6 -68 9 -43 24 16 10 2 72 -18 78 -9 2
-24 9 -33 14 -26 14 -50 11 -83 -9z m-407 -389 c-10 -2 -15 -10 -11 -19 3 -8
1 -14 -5 -14 -5 0 -12 9 -15 20 -4 16 0 20 21 19 16 -1 20 -3 10 -6z m-88
-150 c-3 -30 11 -63 27 -63 10 0 12 6 8 19 -4 14 0 23 16 31 20 11 21 10 14
-18 -4 -22 -2 -31 9 -35 20 -8 21 -46 1 -53 -16 -7 -21 -44 -6 -44 18 0 21
-33 5 -57 -14 -23 -14 -26 2 -44 9 -10 25 -19 36 -19 29 0 21 -33 -18 -71 -19
-18 -43 -49 -51 -68 -16 -33 -16 -34 10 -53 33 -24 37 -72 8 -88 -29 -15 -36
-13 -48 20 -8 20 -18 30 -32 30 -16 0 -21 6 -21 25 0 13 7 28 15 32 14 8 13
16 -4 64 -22 66 -42 99 -57 99 -16 0 -34 23 -39 49 -2 12 -6 25 -9 29 -5 8 31
91 44 102 3 3 14 27 24 54 11 29 26 51 37 53 10 3 16 9 13 14 -3 5 0 9 6 9 6
0 11 -8 10 -17z m618 -183 c-7 -22 -7 -34 1 -44 8 -9 7 -18 -4 -32 -18 -24
-19 -44 -2 -44 7 0 13 -9 14 -20 1 -11 -3 -20 -8 -20 -6 0 -7 -5 -4 -11 5 -7
-5 -8 -32 -3 -21 4 -40 9 -43 11 -7 6 16 38 25 35 16 -7 36 53 30 89 -4 21 -2
47 5 59 16 30 31 15 18 -20z m-728 -116 c0 -3 -7 -12 -15 -20 -16 -17 -18 -14
-9 10 6 15 24 23 24 10z m617 -24 c-5 -22 -3 -30 8 -30 17 0 18 -4 6 -28 -40
-78 -45 -146 -14 -177 14 -14 14 -20 4 -37 -10 -16 -10 -23 2 -36 10 -11 13
-29 10 -51 -5 -29 -3 -33 11 -28 9 4 16 2 16 -3 0 -6 -4 -10 -9 -10 -10 0 -33
-109 -25 -122 7 -11 -4 -58 -14 -58 -19 0 -40 60 -35 99 5 34 3 41 -11 41 -9
0 -16 3 -17 8 0 4 -2 18 -3 32 -1 14 -5 35 -9 46 -6 18 -3 23 18 28 26 7 33
20 15 31 -5 3 -10 1 -10 -4 0 -6 -10 -11 -21 -11 -20 0 -21 4 -15 46 3 26 6
55 6 65 0 10 6 24 13 31 27 27 69 111 59 117 -17 11 -24 51 -12 66 20 25 33
17 27 -15z m-203 -335 c-4 -8 -8 -15 -10 -15 -2 0 -4 7 -4 15 0 8 4 15 10 15
5 0 7 -7 4 -15z m-24 -32 c0 -10 -4 -14 -8 -8 -4 6 -11 13 -16 18 -5 4 -2 7 7
7 10 0 17 -8 17 -17z m338 -108 c-2 -30 -7 -55 -13 -56 -16 0 -24 61 -12 88
17 39 28 26 25 -32z m329 -172 c4 -10 -26 -27 -34 -20 -2 2 -1 12 3 21 7 18
25 17 31 -1z m-124 -50 c-6 -15 -23 -18 -23 -4 0 5 3 17 6 26 5 12 9 14 14 4
5 -7 6 -18 3 -26z m-283 -2 c7 -14 6 -21 -2 -23 -14 -5 -38 15 -38 31 0 18 29
12 40 -8z m40 -66 c0 -14 -4 -25 -10 -25 -5 0 -10 11 -10 25 0 14 5 25 10 25
6 0 10 -11 10 -25z m-13 -82 c-3 -36 -8 -49 -21 -51 -30 -6 -47 6 -37 25 5 10
14 30 22 46 21 45 41 35 36 -20z m143 3 c17 -24 23 -66 9 -66 -5 0 -9 5 -9 12
0 6 -3 8 -7 5 -13 -14 -33 16 -33 50 0 37 12 37 40 -1z m-626 -279 c14 -19 29
-48 32 -65 6 -28 3 -33 -20 -42 -48 -18 -93 28 -87 90 6 57 39 65 75 17z
m-1874 -242 c0 -8 -2 -15 -4 -15 -2 0 -6 7 -10 15 -3 8 -1 15 4 15 6 0 10 -7
10 -15z m7965 -133 c-3 -3 -11 0 -18 7 -9 10 -8 11 6 5 10 -3 15 -9 12 -12z
m-9840 -581 c-3 -5 2 -12 11 -15 10 -4 14 -12 10 -23 -4 -9 -2 -19 4 -23 7 -4
-2 -22 -23 -48 -19 -23 -37 -39 -39 -36 -3 2 -11 -2 -18 -11 -7 -8 -26 -15
-43 -15 -17 0 -27 3 -24 7 4 3 2 12 -4 20 -9 10 -8 13 0 13 7 0 10 4 7 9 -3 5
2 29 10 55 13 37 19 44 29 36 10 -8 15 -6 20 10 4 12 13 19 20 16 9 -3 11 2 7
16 -4 18 -3 19 17 9 12 -7 19 -16 16 -20z m5682 -43 c-3 -7 -5 -2 -5 12 0 14
2 19 5 13 2 -7 2 -19 0 -25z m726 -98 c7 0 23 -10 37 -21 l25 -20 -25 7 c-30
8 -60 33 -59 48 0 6 3 6 6 -1 2 -7 10 -13 16 -13z m-383 -42 c0 -6 -6 -5 -15
2 -8 7 -15 14 -15 16 0 2 7 1 15 -2 8 -4 15 -11 15 -16z m433 -35 c-5 -12 -7
-12 -14 -1 -13 20 -11 28 5 22 8 -3 12 -12 9 -21z m-1612 -134 l-10 -24 0 26
c-1 14 2 29 6 33 12 12 14 -9 4 -35z m-101 -50 c0 -11 -4 -17 -10 -14 -5 3
-10 13 -10 21 0 8 5 14 10 14 6 0 10 -9 10 -21z m420 -7 c0 -5 -9 -17 -20 -27
-16 -14 -20 -15 -20 -4 0 16 19 39 32 39 4 0 8 -4 8 -8z m-494 -27 c-3 -8 -2
-15 2 -15 10 0 9 -46 0 -56 -5 -4 -8 -31 -8 -59 l0 -53 -40 -10 c-38 -9 -40
-9 -46 15 -9 35 2 91 28 145 18 36 29 47 47 48 16 0 22 -4 17 -15z m4609 -125
c3 -6 -1 -7 -9 -4 -18 7 -21 14 -7 14 6 0 13 -4 16 -10z m24 -46 c-6 -7 -9
-18 -8 -26 6 -47 -10 -61 -38 -33 -14 14 -14 18 1 34 9 10 16 22 16 27 0 6 5
15 12 22 16 16 31 -7 17 -24z m-185 -193 c8 -12 -20 -22 -40 -14 -13 5 -13 7
-2 14 17 11 35 11 42 0z m-608 -28 c-8 -8 -36 5 -36 17 0 7 6 7 21 0 11 -7 18
-14 15 -17z m372 -11 c4 -26 -19 -30 -39 -6 -10 13 -10 17 2 25 20 13 34 6 37
-19z m172 18 c0 -11 -3 -12 -42 -15 -26 -2 -35 5 -23 16 9 10 65 9 65 -1z
m115 0 c3 -6 -1 -7 -9 -4 -18 7 -21 14 -7 14 6 0 13 -4 16 -10z m-530 -20 c3
-5 1 -10 -4 -10 -6 0 -11 5 -11 10 0 6 2 10 4 10 3 0 8 -4 11 -10z m-65 -45
c11 -13 8 -15 -13 -15 -19 0 -25 4 -21 15 4 8 10 15 14 15 4 0 13 -7 20 -15z
m484 -30 c4 -10 -1 -15 -14 -15 -20 0 -26 11 -13 23 10 11 20 8 27 -8z m-79
-44 c-3 -2 2 -13 12 -23 15 -17 15 -18 -1 -18 -9 0 -19 7 -22 15 -4 8 -12 15
-20 15 -8 0 -14 4 -14 10 0 5 11 9 25 8 13 -1 22 -4 20 -7z m30 -1 c3 -5 1
-10 -4 -10 -6 0 -11 5 -11 10 0 6 2 10 4 10 3 0 8 -4 11 -10z m-5061 -736 c5
-14 4 -15 -9 -4 -17 14 -19 20 -6 20 5 0 12 -7 15 -16z m-34 -54 c0 -5 -2 -10
-4 -10 -3 0 -8 5 -11 10 -3 6 -1 10 4 10 6 0 11 -4 11 -10z m-20 -200 c0 -5
-2 -10 -4 -10 -3 0 -8 5 -11 10 -3 6 -1 10 4 10 6 0 11 -4 11 -10z m350 0 c0
-5 -2 -10 -4 -10 -3 0 -8 5 -11 10 -3 6 -1 10 4 10 6 0 11 -4 11 -10z m-214
-88 c-4 -3 -14 2 -24 12 -16 18 -16 18 6 6 13 -6 21 -14 18 -18z m7977 -29
c-7 -2 -21 -2 -30 0 -10 3 -4 5 12 5 17 0 24 -2 18 -5z m-7793 -203 c0 -5 -2
-10 -4 -10 -3 0 -8 5 -11 10 -3 6 -1 10 4 10 6 0 11 -4 11 -10z m-3250 -1050
c0 -5 -5 -10 -11 -10 -5 0 -7 5 -4 10 3 6 8 10 11 10 2 0 4 -4 4 -10z m-1530
-160 c0 -5 -7 -7 -15 -4 -8 4 -12 10 -9 15 6 11 24 2 24 -11z m2055 0 c3 -6
-4 -10 -17 -10 -18 0 -20 2 -8 10 19 12 18 12 25 0z m-1110 -130 c3 -5 1 -10
-4 -10 -6 0 -11 5 -11 10 0 6 2 10 4 10 3 0 8 -4 11 -10z m215 -50 c0 -5 -4
-10 -10 -10 -5 0 -10 5 -10 10 0 6 5 10 10 10 6 0 10 -4 10 -10z m1455 -50
c-3 -5 -12 -10 -18 -10 -7 0 -6 4 3 10 19 12 23 12 15 0z m-1895 -21 c0 -6 -4
-7 -10 -4 -5 3 -10 11 -10 16 0 6 5 7 10 4 6 -3 10 -11 10 -16z m555 -9 c3 -5
1 -10 -4 -10 -6 0 -11 5 -11 10 0 6 2 10 4 10 3 0 8 -4 11 -10z m135 -10 c0
-5 -7 -10 -16 -10 -8 0 -12 5 -9 10 3 6 10 10 16 10 5 0 9 -4 9 -10z m-270
-100 c0 -5 -2 -10 -4 -10 -3 0 -8 5 -11 10 -3 6 -1 10 4 10 6 0 11 -4 11 -10z
m1460 -10 c0 -5 -5 -10 -11 -10 -5 0 -7 5 -4 10 3 6 8 10 11 10 2 0 4 -4 4
-10z m-3093 -77 c-9 -9 -19 -14 -23 -11 -10 10 6 28 24 28 15 0 15 -1 -1 -17z
m3623 -47 c0 -3 -4 -8 -10 -11 -5 -3 -10 -1 -10 4 0 6 5 11 10 11 6 0 10 -2
10 -4z m830 -186 c0 -5 -5 -10 -11 -10 -5 0 -7 5 -4 10 3 6 8 10 11 10 2 0 4
-4 4 -10z"/>
<path d="M7115 7170 c-3 -5 -1 -10 4 -10 6 0 11 5 11 10 0 6 -2 10 -4 10 -3 0
-8 -4 -11 -10z"/>
<path d="M1108 7033 c7 -3 16 -2 19 1 4 3 -2 6 -13 5 -11 0 -14 -3 -6 -6z"/>
<path d="M11120 7010 c0 -5 4 -10 9 -10 5 0 12 -10 14 -22 3 -17 5 -14 6 10 1
22 -3 32 -14 32 -8 0 -15 -4 -15 -10z"/>
<path d="M11105 6979 c-4 -6 -5 -12 -2 -15 2 -3 7 2 10 11 7 17 1 20 -8 4z"/>
<path d="M7000 6951 c-12 -24 -13 -31 -2 -31 5 0 14 11 20 25 14 29 -2 34 -18
6z"/>
<path d="M10045 6910 c-8 -13 5 -13 25 0 13 8 13 10 -2 10 -9 0 -20 -4 -23
-10z"/>
<path d="M11145 6912 c-29 -6 -33 -18 -23 -70 5 -30 4 -58 -2 -77 -9 -26 -8
-32 10 -47 24 -19 25 -28 5 -28 -8 0 -15 -8 -15 -17 0 -16 -1 -15 -13 1 -8 11
-19 15 -30 10 -24 -9 -21 -27 3 -19 11 4 20 2 20 -4 0 -6 -4 -11 -10 -11 -5 0
-10 -14 -10 -32 l0 -32 -30 31 c-23 23 -37 30 -60 27 -16 -2 -30 1 -30 6 0 5
-6 7 -12 5 -7 -3 -37 -7 -66 -8 -51 -4 -74 -17 -112 -60 -15 -18 -17 -18 -43
7 -16 14 -23 26 -17 26 6 0 8 5 4 13 -6 9 -3 8 8 -1 18 -15 40 -7 87 29 13 10
27 16 32 14 10 -7 31 30 22 39 -4 3 -17 -1 -30 -9 -13 -9 -27 -14 -32 -11 -4
3 -19 -6 -31 -19 -24 -26 -50 -33 -50 -14 0 6 -6 9 -12 7 -12 -4 -38 14 -38
27 0 3 -9 16 -20 28 -18 18 -22 20 -30 7 -8 -13 -10 -13 -10 1 0 9 -18 33 -39
52 -22 20 -41 44 -43 55 -2 16 -7 18 -27 11 -18 -7 -21 -12 -12 -23 9 -11 8
-18 -6 -32 -17 -16 -18 -16 -21 -1 -2 9 -8 17 -13 17 -6 0 -8 -4 -5 -8 2 -4 1
-14 -4 -22 -8 -13 -13 -11 -32 9 -13 13 -17 21 -10 17 6 -4 12 -2 12 4 0 13
-43 3 -48 -11 -2 -5 -11 -2 -19 7 -8 8 -18 12 -21 9 -4 -3 -2 -9 3 -13 6 -4
11 -12 12 -18 3 -14 -90 -6 -95 7 -5 12 -53 11 -72 -1 -13 -8 -11 -11 8 -16
21 -6 31 -23 15 -25 -5 0 -26 -1 -48 -3 -22 -1 -50 -6 -62 -10 -14 -5 -23 -3
-23 3 0 6 11 11 24 11 14 0 28 5 31 10 4 6 -8 10 -29 10 -20 0 -36 -4 -36 -9
0 -5 -22 -17 -50 -26 -27 -9 -52 -21 -55 -26 -4 -5 -24 -9 -46 -9 -24 0 -38
-4 -34 -10 4 -6 -1 -7 -11 -3 -12 4 -15 3 -10 -5 4 -7 1 -13 -6 -13 -7 -1 -26
-3 -43 -6 -16 -2 -40 -4 -52 -4 -13 -1 -23 -5 -23 -9 0 -4 16 -7 35 -6 37 1
46 -8 19 -18 -9 -3 -14 -13 -11 -21 4 -8 1 -12 -7 -9 -17 6 -86 -23 -92 -40
-5 -14 -49 -31 -69 -28 -6 1 -26 -12 -45 -28 -19 -16 -28 -29 -20 -27 8 2 5
-1 -7 -7 -13 -5 -23 -13 -23 -17 0 -12 26 -17 41 -8 8 5 25 9 37 9 36 0 21
-24 -16 -28 -18 -2 -32 -7 -32 -12 0 -4 10 -6 23 -2 20 5 21 4 8 -11 -9 -11
-10 -17 -2 -17 6 0 11 -7 11 -15 0 -8 3 -14 8 -13 4 0 31 -3 61 -7 41 -6 49
-10 37 -17 -10 -5 -24 -7 -32 -4 -8 3 -14 0 -14 -6 0 -7 15 -9 43 -5 38 5 40
4 23 -9 -11 -8 -31 -14 -45 -15 -25 -1 -25 -1 4 -10 17 -5 43 -7 58 -4 16 3
40 2 54 -1 l26 -7 -24 -13 c-23 -13 -22 -13 21 -14 33 0 41 -3 30 -10 -12 -8
-9 -10 13 -10 15 0 27 -5 27 -11 0 -6 -7 -9 -15 -5 -19 7 -19 -1 -2 -19 9 -8
19 -10 28 -4 8 5 19 9 24 9 6 0 4 -4 -4 -9 -12 -8 -12 -12 2 -26 9 -9 21 -14
26 -11 5 3 12 -1 15 -10 3 -8 11 -12 16 -9 6 4 23 -1 37 -11 l27 -17 -22 -18
c-29 -23 -28 -26 13 -21 25 3 36 0 41 -11 4 -11 15 -14 45 -10 45 6 52 -8 18
-38 -29 -25 -21 -54 14 -54 19 -1 26 3 23 12 -6 16 30 18 39 3 10 -16 -13 -39
-34 -33 -9 2 -23 -3 -30 -11 -8 -9 -20 -16 -27 -16 -8 0 -14 -5 -14 -11 0 -5
-4 -8 -9 -4 -6 3 -13 -1 -18 -8 -4 -7 -16 -16 -25 -20 -10 -3 -18 -11 -18 -17
0 -8 6 -7 20 0 11 6 24 9 29 6 5 -3 17 4 27 15 10 12 28 25 39 31 11 5 0 -9
-24 -32 -30 -28 -41 -44 -34 -51 8 -8 23 0 49 24 37 33 43 37 62 37 4 0 0 5
-8 10 -13 8 -12 10 3 10 9 0 27 10 38 21 16 16 23 18 29 9 5 -9 9 -9 14 -1 4
6 12 11 17 11 22 0 -38 -59 -70 -71 -28 -10 -31 -13 -17 -21 9 -5 16 -16 16
-23 0 -23 18 -18 60 15 20 16 40 26 44 23 4 -4 11 -1 16 7 8 13 10 13 10 -1 0
-10 -11 -19 -30 -22 -21 -5 -30 -12 -30 -26 0 -11 -8 -25 -17 -30 -17 -10 -16
-10 2 -11 24 0 40 10 47 29 2 8 22 16 47 18 32 3 51 13 76 38 19 18 32 41 31
51 -2 11 -1 13 1 7 3 -7 9 -13 14 -13 17 0 9 -57 -12 -84 -12 -16 -19 -35 -16
-46 3 -11 1 -17 -4 -14 -5 3 -25 -12 -44 -33 -27 -29 -34 -45 -31 -67 3 -16
-2 -39 -11 -53 -23 -35 -5 -43 22 -9 16 21 28 26 43 22 15 -5 22 -1 27 15 5
13 2 25 -6 30 -10 6 -7 15 16 39 44 45 63 54 80 36 8 -8 20 -16 27 -19 7 -2 9
-8 5 -13 -4 -5 -12 -3 -16 4 -4 7 -15 10 -25 6 -14 -5 -16 -15 -12 -51 3 -25
8 -48 12 -52 4 -3 4 4 1 16 -3 13 -1 25 3 28 4 3 6 15 4 28 -3 15 -2 17 3 7
14 -26 38 -16 49 20 7 19 17 35 23 35 6 0 20 13 30 28 l18 28 8 -23 c6 -19 8
-20 12 -5 5 18 23 24 23 6 0 -5 5 -7 11 -3 6 4 8 19 5 37 -6 29 -5 30 13 13
18 -16 18 -16 14 9 -3 14 -12 25 -19 25 -23 0 -16 28 9 32 17 2 22 9 21 29 -1
19 4 26 14 25 9 -2 18 -8 20 -14 2 -7 8 -10 13 -6 5 3 18 -5 29 -18 l19 -23
-14 40 c-11 34 -11 40 1 43 8 2 12 7 9 11 -2 5 7 6 20 3 15 -2 25 0 25 7 0 6
-10 11 -22 12 -15 0 -18 2 -8 6 8 3 21 10 28 16 8 6 23 12 34 14 11 2 29 8 40
14 30 16 6 28 -57 29 -44 1 -47 3 -25 11 14 6 49 9 79 8 39 -2 56 1 59 11 3 9
-1 11 -13 6 -10 -4 -2 9 18 28 24 22 37 44 37 60 0 14 8 31 18 38 23 16 44 53
35 62 -3 3 5 6 20 6 14 0 29 -5 33 -11 3 -6 20 -9 36 -7 23 4 32 0 38 -16 5
-12 9 -15 9 -8 1 6 5 12 10 12 4 0 6 -10 4 -23 -3 -13 0 -39 5 -58 l9 -34 13
27 c12 25 11 31 -6 50 -10 12 -14 18 -7 15 10 -7 37 46 27 55 -2 3 -6 20 -8
39 -3 19 -12 53 -20 77 -8 23 -11 42 -6 42 6 0 10 9 10 21 0 11 -5 17 -10 14
-6 -4 -9 15 -8 52 2 56 -5 114 -17 154 -4 11 -2 19 4 19 5 0 12 -8 14 -17 3
-10 3 -2 2 17 -2 19 -4 37 -6 40 -1 3 -1 8 0 13 0 4 -6 7 -15 7 -8 0 -12 4 -9
10 3 6 -1 7 -9 4 -12 -5 -16 0 -16 17 0 32 -23 94 -35 95 -6 0 -19 -1 -30 -4z
m-908 -178 c-3 -3 -12 -4 -19 -1 -8 3 -5 6 6 6 11 1 17 -2 13 -5z m-200 -30
c-3 -3 -12 -4 -19 -1 -8 3 -5 6 6 6 11 1 17 -2 13 -5z m173 -8 c0 -2 -7 -7
-16 -10 -8 -3 -12 -2 -9 4 6 10 25 14 25 6z m120 -31 c7 -9 8 -15 2 -15 -5 0
-12 7 -16 15 -3 8 -4 15 -2 15 2 0 9 -7 16 -15z m-176 -19 c-3 -9 -10 -16 -15
-16 -6 0 -5 9 1 21 13 24 24 20 14 -5z m107 1 c-10 -9 -11 -8 -5 6 3 10 9 15
12 12 3 -3 0 -11 -7 -18z m558 -173 c-14 -18 -33 -18 -47 -1 -9 10 -4 13 24
14 29 1 33 -1 23 -13z m128 -330 c-3 -3 -12 -4 -19 -1 -8 3 -5 6 6 6 11 1 17
-2 13 -5z m-97 -24 c0 -5 -4 -10 -9 -10 -6 0 -13 5 -16 10 -3 6 1 10 9 10 9 0
16 -4 16 -10z m-505 -210 c-3 -5 -12 -10 -18 -10 -7 0 -6 4 3 10 19 12 23 12
15 0z m151 -117 c-10 -10 -19 5 -10 18 6 11 8 11 12 0 2 -7 1 -15 -2 -18z
m-66 -87 c0 -3 -4 -16 -10 -30 -14 -37 -32 -33 -19 4 6 17 15 30 20 30 5 0 9
-2 9 -4z"/>
<path d="M10466 6876 c3 -9 11 -16 16 -16 13 0 5 23 -10 28 -7 2 -10 -2 -6
-12z"/>
<path d="M10440 6866 c0 -9 5 -16 10 -16 6 0 10 4 10 9 0 6 -4 13 -10 16 -5 3
-10 -1 -10 -9z"/>
<path d="M15160 6851 c0 -22 -27 -36 -33 -18 -2 7 -2 2 0 -11 2 -14 -2 -25
-12 -28 -9 -4 -15 -19 -15 -40 0 -23 -7 -38 -22 -48 -12 -9 -19 -16 -14 -16 5
0 3 -7 -4 -15 -6 -8 -9 -19 -5 -25 3 -5 2 -10 -3 -10 -6 0 -13 -16 -16 -36 -7
-36 -47 -116 -74 -146 -11 -14 -18 -15 -29 -7 -10 9 -13 8 -13 -4 0 -16 -24
-30 -34 -19 -4 3 -19 6 -34 7 -44 2 -113 25 -118 40 -3 8 -12 11 -20 8 -8 -3
-14 0 -14 6 0 6 -7 11 -15 11 -8 0 -15 7 -15 16 0 10 -6 14 -14 11 -8 -3 -16
-1 -19 6 -2 8 -17 8 -58 0 -124 -26 -148 -30 -161 -21 -7 4 -36 5 -65 2 -42
-5 -60 -2 -98 17 -26 13 -51 31 -56 41 -5 10 -16 18 -24 18 -7 0 -15 5 -17 10
-7 21 -111 13 -187 -14 -40 -14 -79 -30 -85 -35 -6 -5 -40 -12 -76 -16 -48 -6
-78 -16 -118 -41 -29 -19 -57 -34 -62 -34 -21 0 -100 -87 -101 -111 0 -13 -2
-34 -3 -46 -2 -13 1 -23 4 -23 4 0 10 -13 13 -30 8 -36 62 -89 99 -97 15 -3
28 -8 28 -12 0 -4 9 -7 20 -8 11 -1 58 -11 103 -23 45 -12 91 -23 102 -24 48
-7 101 -19 110 -26 6 -4 44 -15 85 -25 41 -10 86 -23 100 -30 14 -7 30 -10 37
-8 7 2 60 -5 118 -17 59 -12 113 -19 120 -16 8 3 15 1 17 -4 3 -9 94 -26 183
-35 22 -2 65 -6 95 -9 30 -3 87 -17 125 -32 39 -14 86 -30 105 -34 19 -5 60
-17 90 -26 49 -15 235 -52 268 -53 9 -1 12 63 12 288 0 267 -1 290 -17 294
-17 4 -17 5 0 6 9 0 17 5 17 10 0 6 -9 8 -20 6 -14 -3 -20 2 -20 13 0 9 -7 26
-15 36 -8 11 -15 32 -15 48 0 15 -5 28 -11 28 -6 0 -8 7 -5 16 3 8 -1 22 -9
30 -8 8 -11 22 -8 31 4 9 -1 19 -10 25 -10 5 -17 18 -17 28 0 11 -7 20 -15 20
-18 0 -20 16 -2 23 10 4 10 6 0 6 -20 1 -15 21 5 22 13 0 12 2 -5 9 -16 7 -20
15 -16 32 4 19 3 20 -6 8 -9 -11 -10 -5 -5 27 7 47 -1 93 -16 93 -6 0 -10 -9
-10 -19z m117 -393 c-3 -8 -6 -5 -6 6 -1 11 2 17 5 13 3 -3 4 -12 1 -19z"/>
<path d="M10390 6849 c0 -8 32 -29 44 -29 3 0 3 6 0 14 -6 16 -44 29 -44 15z"/>
<path d="M10700 6816 c0 -8 5 -18 10 -21 6 -3 10 3 10 14 0 12 -4 21 -10 21
-5 0 -10 -6 -10 -14z"/>
<path d="M6968 6788 c-34 -51 -56 -120 -63 -189 -9 -100 8 -82 41 42 14 52 31
104 39 116 17 25 20 53 6 53 -5 0 -15 -10 -23 -22z"/>
<path d="M10720 6775 c-8 -9 -8 -15 -2 -15 12 0 26 19 19 26 -2 2 -10 -2 -17
-11z"/>
<path d="M10781 6777 c-7 -9 -11 -24 -9 -34 3 -16 5 -15 17 5 15 29 10 50 -8
29z"/>
<path d="M9793 6710 c-29 -17 -53 -33 -53 -35 0 -16 99 31 129 61 16 15 -33
-1 -76 -26z"/>
<path d="M10895 6670 c-3 -5 -1 -10 4 -10 6 0 11 5 11 10 0 6 -2 10 -4 10 -3
0 -8 -4 -11 -10z"/>
<path d="M7900 6636 c-6 -9 -10 -21 -7 -28 4 -9 6 -7 6 4 1 9 7 18 14 21 6 2
9 7 6 11 -3 4 -12 0 -19 -8z"/>
<path d="M9609 6563 c-13 -15 -12 -15 9 -4 23 12 28 21 13 21 -5 0 -15 -7 -22
-17z"/>
<path d="M6757 6543 c-4 -3 -7 -13 -7 -21 0 -11 3 -12 13 -3 8 6 16 9 19 6 3
-3 11 1 18 10 11 13 9 15 -12 15 -14 0 -28 -3 -31 -7z"/>
<path d="M7086 6531 c-4 -7 -5 -15 -2 -18 9 -9 19 4 14 18 -4 11 -6 11 -12 0z"/>
<path d="M9495 6400 c-3 -6 1 -7 9 -4 18 7 21 14 7 14 -6 0 -13 -4 -16 -10z"/>
<path d="M6718 6373 c-2 -5 -1 -26 2 -47 4 -33 7 -37 17 -24 7 8 16 29 19 46
6 28 4 32 -14 32 -12 0 -22 -3 -24 -7z"/>
<path d="M6806 6359 c-12 -29 -24 -164 -15 -173 13 -14 37 52 37 102 1 53 -13
95 -22 71z"/>
<path d="M9490 6341 c0 -10 34 -21 68 -21 25 0 30 15 6 24 -24 9 -74 7 -74 -3z"/>
<path d="M11136 6291 c-4 -5 -2 -12 3 -15 5 -4 12 -2 15 3 4 5 2 12 -3 15 -5
4 -12 2 -15 -3z"/>
<path d="M7097 6213 c-4 -3 -7 -15 -7 -25 0 -26 24 -17 28 10 3 21 -8 29 -21
15z"/>
<path d="M11300 6190 c0 -5 5 -10 11 -10 5 0 7 5 4 10 -3 6 -8 10 -11 10 -2 0
-4 -4 -4 -10z"/>
<path d="M9750 6170 c0 -5 9 -10 19 -10 11 0 23 5 26 10 4 6 -5 10 -19 10 -14
0 -26 -4 -26 -10z"/>
<path d="M9830 6087 c-34 -11 -34 -11 -8 -15 15 -2 40 4 55 12 23 12 24 15 8
15 -11 -1 -36 -6 -55 -12z"/>
<path d="M9908 6063 c7 -3 16 -2 19 1 4 3 -2 6 -13 5 -11 0 -14 -3 -6 -6z"/>
<path d="M9920 6005 c-33 -19 -21 -19 21 0 19 8 27 14 19 14 -8 0 -26 -6 -40
-14z"/>
<path d="M10055 6010 c3 -5 8 -10 11 -10 2 0 4 5 4 10 0 6 -5 10 -11 10 -5 0
-7 -4 -4 -10z"/>
<path d="M9990 5989 c0 -5 5 -7 10 -4 6 3 10 8 10 11 0 2 -4 4 -10 4 -5 0 -10
-5 -10 -11z"/>
<path d="M11400 5935 c11 -13 8 -14 -18 -9 -28 6 -30 4 -28 -24 2 -32 30 -67
45 -57 5 3 13 0 16 -6 4 -5 13 -8 21 -5 8 3 17 -1 20 -9 8 -21 23 -19 18 3 -2
9 -6 35 -7 57 -2 25 -8 39 -16 37 -6 -1 -19 4 -27 13 -20 20 -41 20 -24 0z"/>
<path d="M10009 5923 c-1 -5 -1 -11 -1 -14 1 -4 -7 -5 -17 -2 -11 3 -24 -3
-33 -15 -8 -12 -26 -24 -41 -27 -15 -4 -27 -12 -27 -17 0 -5 6 -7 13 -4 10 4
56 18 105 32 7 2 15 3 18 3 15 -1 21 25 9 38 -15 15 -24 17 -26 6z"/>
<path d="M9914 5904 c-18 -14 -18 -14 6 -3 31 14 36 19 24 19 -6 0 -19 -7 -30
-16z"/>
<path d="M10878 5873 c7 -3 16 -2 19 1 4 3 -2 6 -13 5 -11 0 -14 -3 -6 -6z"/>
<path d="M10950 5855 c-14 -8 -33 -12 -42 -9 -32 10 -19 -13 18 -31 33 -15 61
-13 39 3 -6 4 -11 13 -13 21 -2 11 0 12 11 3 15 -13 27 -6 27 15 0 16 -8 16
-40 -2z"/>
<path d="M10091 5797 c-26 -18 -39 -33 -32 -35 18 -6 62 19 54 31 -3 5 4 6 18
2 17 -4 20 -3 10 3 -7 5 -10 15 -7 21 10 15 8 14 -43 -22z"/>
<path d="M10382 5787 c-12 -13 -22 -30 -22 -38 0 -8 12 -1 30 18 17 18 30 34
30 37 0 13 -18 5 -38 -17z"/>
<path d="M10913 5793 c-7 -2 -13 -12 -13 -20 0 -11 5 -13 18 -8 9 4 23 8 30 8
7 0 11 5 9 11 -4 13 -26 17 -44 9z"/>
<path d="M10208 5783 c7 -3 16 -2 19 1 4 3 -2 6 -13 5 -11 0 -14 -3 -6 -6z"/>
<path d="M112 5733 c-22 -21 -47 -52 -56 -70 -9 -17 -25 -38 -36 -46 -20 -14
-20 -22 -18 -996 l3 -982 45 41 c132 119 340 253 500 321 86 36 160 78 220
123 30 23 88 62 129 87 118 71 225 179 206 209 -13 20 -149 53 -226 54 -42 1
-75 4 -73 8 3 4 -10 7 -28 7 -18 0 -46 3 -63 5 -16 3 -55 9 -86 15 -86 14
-172 49 -185 74 -32 64 -61 114 -75 129 -8 10 -26 38 -38 63 -12 25 -29 45
-36 45 -23 0 -27 18 -9 45 14 21 22 74 14 95 -1 3 -3 30 -5 61 -2 31 -12 75
-21 98 -9 23 -14 51 -11 63 5 19 -30 98 -43 98 -3 0 -14 -14 -25 -30 -11 -17
-28 -33 -37 -36 -10 -3 -18 -8 -18 -12 0 -4 -13 -7 -29 -8 -44 -2 -64 41 -65
137 0 70 3 85 38 153 21 41 41 96 44 121 2 25 9 48 13 51 5 3 9 16 9 29 0 13
5 27 10 30 13 8 13 42 1 49 -5 4 -27 -11 -49 -31z"/>
<path d="M10290 5736 c-14 -16 -20 -31 -16 -42 4 -12 2 -15 -9 -11 -8 4 -17 2
-20 -4 -4 -5 -10 -7 -14 -4 -5 2 -17 -2 -27 -10 -17 -13 -15 -14 26 -9 42 4
64 19 54 35 -2 4 13 21 33 38 31 26 34 31 17 31 -11 0 -31 -11 -44 -24z"/>
<path d="M7025 5740 c-3 -5 -1 -10 4 -10 6 0 11 5 11 10 0 6 -2 10 -4 10 -3 0
-8 -4 -11 -10z"/>
<path d="M10024 5726 c-10 -8 -16 -17 -13 -20 3 -4 17 2 30 13 27 23 13 28
-17 7z"/>
<path d="M9905 5722 c-11 -4 -21 -13 -23 -20 -2 -10 2 -10 17 -2 16 8 40 33
29 29 -2 -1 -12 -4 -23 -7z"/>
<path d="M7078 5664 c-5 -4 -8 -16 -8 -28 0 -14 3 -17 11 -9 6 6 9 19 7 28 -1
9 -6 13 -10 9z"/>
<path d="M372 5640 c-7 -12 -8 -20 -2 -20 5 0 10 5 10 10 0 6 7 10 16 10 8 0
12 5 9 10 -9 15 -19 12 -33 -10z"/>
<path d="M10483 5623 c-3 -10 -8 -22 -11 -28 -3 -5 4 -2 16 9 12 10 19 23 16
27 -8 13 -14 11 -21 -8z"/>
<path d="M10288 5600 c-25 -23 -29 -29 -15 -30 9 0 31 14 49 30 42 41 10 41
-34 0z"/>
<path d="M10210 5610 c-8 -5 -11 -12 -7 -16 4 -4 15 0 24 9 18 18 8 23 -17 7z"/>
<path d="M7002 5533 c-10 -4 -9 -8 5 -19 25 -19 33 -17 33 6 0 20 -12 24 -38
13z"/>
<path d="M7091 5514 c0 -11 3 -14 6 -6 3 7 2 16 -1 19 -3 4 -6 -2 -5 -13z"/>
<path d="M211 5451 c-11 -7 -9 -13 9 -31 16 -16 25 -19 33 -11 8 8 8 16 1 28
-13 21 -25 25 -43 14z"/>
<path d="M240 5354 c0 -8 5 -12 10 -9 6 4 8 11 5 16 -9 14 -15 11 -15 -7z"/>
<path d="M240 5315 c0 -8 7 -15 15 -15 8 0 15 4 15 9 0 5 -7 11 -15 15 -9 3
-15 0 -15 -9z"/>
<path d="M6966 5269 c-13 -62 -13 -84 -2 -111 12 -27 13 -28 28 -11 12 14 18
68 8 68 -1 0 -4 13 -6 29 -4 40 -22 55 -28 25z"/>
<path d="M6633 5185 c-9 -24 1 -27 15 -5 8 13 8 20 2 20 -6 0 -13 -7 -17 -15z"/>
<path d="M7945 4989 c-16 -6 -14 -7 10 -7 82 0 182 -10 202 -20 12 -7 37 -12
55 -12 18 0 49 -5 68 -10 22 -6 36 -6 38 -1 2 6 12 7 28 1 31 -12 31 2 -1 34
-24 24 -26 24 -203 24 -98 -1 -187 -5 -197 -9z"/>
<path d="M6706 4981 c-4 -7 -5 -15 -2 -18 9 -9 19 4 14 18 -4 11 -6 11 -12 0z"/>
<path d="M12010 4970 c-8 -5 -11 -12 -7 -17 5 -4 12 -1 17 7 8 12 10 12 16 -3
3 -9 10 -17 15 -17 6 0 5 9 -1 20 -12 22 -18 24 -40 10z"/>
<path d="M7687 4495 c-6 -15 10 -32 20 -21 4 3 1 6 -5 6 -6 0 -9 7 -6 15 4 8
4 15 1 15 -3 0 -7 -7 -10 -15z"/>
<path d="M7733 4470 c1 -12 8 -20 19 -20 22 0 23 7 4 26 -20 19 -25 18 -23 -6z"/>
<path d="M11657 4426 c-4 -9 1 -25 10 -36 17 -20 39 -28 29 -11 -3 4 6 13 19
19 29 13 33 32 8 32 -10 0 -28 3 -39 6 -14 4 -23 0 -27 -10z"/>
<path d="M11718 4373 c7 -3 16 -2 19 1 4 3 -2 6 -13 5 -11 0 -14 -3 -6 -6z"/>
<path d="M6690 4325 c0 -8 4 -15 10 -15 5 0 7 7 4 15 -4 8 -8 15 -10 15 -2 0
-4 -7 -4 -15z"/>
<path d="M8125 4325 c17 -53 15 -52 26 -32 8 13 7 22 -1 33 -16 18 -31 18 -25
-1z"/>
<path d="M8163 4279 c3 -10 1 -22 -4 -25 -5 -3 -9 -10 -9 -16 0 -6 7 -5 17 3
12 10 17 11 20 2 2 -7 11 -9 19 -6 8 3 14 0 14 -7 0 -6 4 -8 10 -5 5 3 8 0 5
-7 -3 -7 8 -21 25 -30 35 -20 36 -19 13 25 -10 17 -26 33 -35 33 -35 3 -38 4
-38 23 0 11 -9 21 -21 24 -17 5 -20 2 -16 -14z"/>
<path d="M9058 4263 c7 -3 16 -2 19 1 4 3 -2 6 -13 5 -11 0 -14 -3 -6 -6z"/>
<path d="M8306 4192 c-3 -5 1 -15 9 -22 21 -17 27 -9 10 13 -7 10 -16 14 -19
9z"/>
<path d="M8810 4176 c0 -2 7 -6 15 -10 8 -3 15 -1 15 4 0 6 -7 10 -15 10 -8 0
-15 -2 -15 -4z"/>
<path d="M9140 4150 c0 -5 7 -10 16 -10 8 0 12 5 9 10 -3 6 -10 10 -16 10 -5
0 -9 -4 -9 -10z"/>
<path d="M9198 4143 c6 -2 18 -2 25 0 6 3 1 5 -13 5 -14 0 -19 -2 -12 -5z"/>
<path d="M7102 4064 c-23 -16 -32 -67 -9 -59 9 4 40 75 33 75 -1 0 -12 -7 -24
-16z"/>
<path d="M7527 4073 c-4 -3 -7 -11 -7 -17 0 -6 5 -5 12 2 6 6 9 14 7 17 -3 3
-9 2 -12 -2z"/>
<path d="M11685 4061 c-7 -12 12 -24 25 -16 11 7 4 25 -10 25 -5 0 -11 -4 -15
-9z"/>
<path d="M7550 4020 c0 -11 2 -20 4 -20 2 0 6 9 9 20 3 11 1 20 -4 20 -5 0 -9
-9 -9 -20z"/>
<path d="M11350 4030 c0 -17 33 -29 52 -19 29 16 21 29 -17 29 -19 0 -35 -4
-35 -10z"/>
<path d="M13855 4020 c-4 -6 -1 -17 5 -25 10 -12 9 -15 -6 -15 -15 0 -16 -2
-5 -9 17 -11 43 -3 35 10 -3 5 0 9 6 9 8 0 8 6 0 20 -12 22 -25 26 -35 10z"/>
<path d="M13790 4005 c0 -9 9 -15 25 -15 18 0 23 4 19 15 -4 8 -15 15 -25 15
-10 0 -19 -7 -19 -15z"/>
<path d="M7130 3968 c0 -9 5 -20 10 -23 13 -8 13 5 0 25 -8 13 -10 13 -10 -2z"/>
<path d="M13930 3960 c0 -11 5 -20 10 -20 6 0 10 9 10 20 0 11 -4 20 -10 20
-5 0 -10 -9 -10 -20z"/>
<path d="M7071 3954 c0 -11 3 -14 6 -6 3 7 2 16 -1 19 -3 4 -6 -2 -5 -13z"/>
<path d="M7339 3947 c-13 -28 -7 -57 12 -57 8 0 8 4 0 14 -10 11 -10 20 -1 36
6 12 9 24 6 27 -3 3 -11 -6 -17 -20z"/>
<path d="M13900 3960 c0 -5 5 -10 10 -10 6 0 10 5 10 10 0 6 -4 10 -10 10 -5
0 -10 -4 -10 -10z"/>
<path d="M13970 3961 c0 -6 5 -13 10 -16 6 -3 10 1 10 9 0 9 -4 16 -10 16 -5
0 -10 -4 -10 -9z"/>
<path d="M7293 3932 c-12 -20 -29 -111 -19 -101 7 6 36 112 32 116 -1 1 -7 -6
-13 -15z"/>
<path d="M9503 3913 c9 -2 25 -2 35 0 9 3 1 5 -18 5 -19 0 -27 -2 -17 -5z"/>
<path d="M11460 3855 c0 -10 10 -15 26 -15 22 0 25 2 14 15 -7 8 -19 15 -26
15 -8 0 -14 -7 -14 -15z"/>
<path d="M9868 3843 c7 -3 16 -2 19 1 4 3 -2 6 -13 5 -11 0 -14 -3 -6 -6z"/>
<path d="M11296 3779 c9 -10 25 -19 36 -19 30 0 20 16 -18 28 -35 10 -36 10
-18 -9z"/>
<path d="M10110 3700 c0 -5 9 -10 21 -10 11 0 17 5 14 10 -3 6 -13 10 -21 10
-8 0 -14 -4 -14 -10z"/>
<path d="M11380 3690 c0 -5 9 -14 20 -20 16 -8 20 -8 20 4 0 7 -7 17 -16 20
-21 8 -24 8 -24 -4z"/>
<path d="M13425 3670 c-3 -5 -1 -10 4 -10 6 0 11 5 11 10 0 6 -2 10 -4 10 -3
0 -8 -4 -11 -10z"/>
<path d="M11245 3660 c-3 -5 1 -10 9 -10 9 0 16 5 16 10 0 6 -4 10 -9 10 -6 0
-13 -4 -16 -10z"/>
<path d="M13470 3659 c-11 -8 -12 -12 -2 -16 6 -2 12 -13 12 -23 0 -10 9 -22
20 -25 11 -3 20 -13 20 -21 0 -8 4 -14 10 -14 5 0 24 -19 41 -42 29 -41 117
-117 169 -147 97 -57 143 -81 152 -81 5 0 44 -18 86 -39 42 -22 88 -42 102
-46 14 -3 34 -10 45 -15 11 -5 44 -16 74 -25 60 -19 105 -45 159 -91 21 -17
76 -54 124 -82 73 -43 119 -74 243 -164 6 -4 46 -39 90 -79 84 -75 238 -181
327 -226 47 -23 174 -62 206 -63 9 0 12 55 12 244 l0 244 -30 10 c-16 6 -47
27 -67 47 -21 21 -55 46 -75 56 -20 10 -39 23 -43 29 -3 5 -23 14 -45 20 -21
6 -46 17 -54 25 -8 8 -19 15 -24 15 -6 0 -12 3 -14 8 -7 16 -81 64 -118 77
-12 4 -48 19 -86 36 -22 10 -52 20 -65 23 -13 3 -49 12 -79 22 -30 9 -73 21
-95 28 -22 6 -44 14 -50 17 -5 4 -28 10 -50 14 -22 4 -44 10 -50 14 -5 4 -28
13 -50 20 -22 7 -62 24 -90 36 -97 45 -144 65 -149 65 -3 0 -29 11 -58 24 -29
13 -70 29 -90 36 -21 6 -38 15 -38 20 0 4 -9 6 -20 3 -11 -3 -27 0 -35 7 -21
17 -159 46 -235 49 -36 1 -73 4 -84 8 -10 3 -23 -1 -27 -8 -8 -11 -12 -11 -23
4 -15 20 -25 21 -46 6z"/>
<path d="M11365 3590 c3 -5 11 -10 16 -10 6 0 7 5 4 10 -3 6 -11 10 -16 10 -6
0 -7 -4 -4 -10z"/>
<path d="M10378 3583 c6 -2 18 -2 25 0 6 3 1 5 -13 5 -14 0 -19 -2 -12 -5z"/>
<path d="M11280 3560 c-13 -9 -13 -10 0 -10 8 0 22 5 30 10 13 9 13 10 0 10
-8 0 -22 -5 -30 -10z"/>
<path d="M11395 3559 c-7 -10 38 -17 61 -9 14 5 10 8 -19 12 -21 2 -40 1 -42
-3z"/>
<path d="M11036 3535 c4 -10 0 -15 -12 -15 -16 0 -17 -2 -4 -10 22 -14 37 -12
44 5 3 9 -3 19 -14 25 -16 8 -18 8 -14 -5z"/>
<path d="M10640 3480 c0 -5 7 -10 15 -10 8 0 15 5 15 10 0 6 -7 10 -15 10 -8
0 -15 -4 -15 -10z"/>
</g>
</svg>
